<svg width="266" height="238" viewBox="0 0 266 238" fill="none" xmlns="http://www.w3.org/2000/svg">
<g clip-path="url(#clip0)">
<path d="M132.712 264.074C203.859 264.074 261.535 205.838 261.535 134C261.535 62.162 203.859 3.92578 132.712 3.92578C61.5644 3.92578 3.88812 62.162 3.88812 134C3.88812 205.838 61.5644 264.074 132.712 264.074Z" fill="#F8F8F8"/>
<path d="M210.675 113.368C200.461 104.448 185.467 104.773 175.622 113.563C175.008 112.663 174.342 111.803 173.679 110.941C175.679 108.606 177.335 105.905 178.477 102.848C183.67 88.941 176.712 73.4158 162.939 68.1731C150.611 63.4805 137.023 68.6337 130.578 79.7342C129.864 73.23 126.842 66.9665 121.553 62.3483C110.42 52.6249 93.588 53.8555 83.9586 65.0973C76.9508 73.2776 75.716 84.4954 79.8378 93.7503C76.4734 92.9657 72.901 92.8301 69.2857 93.4645C54.7828 96.0084 45.0679 109.942 47.5873 124.586C47.6931 125.202 47.8476 125.798 47.9927 126.397C45.8704 126.931 43.7755 127.707 41.7615 128.804C28.8081 135.863 23.9751 152.189 30.9668 165.269C35.5417 173.827 44.0477 178.843 53.0083 179.333C49.7097 189.358 52.4552 200.841 60.86 208.182C70.5672 216.66 84.603 216.805 94.4236 209.253C94.4055 210.804 94.4936 212.373 94.7507 213.956C97.1333 228.623 110.84 238.563 125.367 236.157C139.893 233.752 149.737 219.911 147.354 205.244C147.109 203.73 146.715 202.282 146.239 200.878C146.456 200.806 146.664 200.715 146.88 200.641C152.805 206.636 161.421 209.735 170.314 208.175C184.817 205.631 194.531 191.698 192.012 177.054C190.943 170.844 187.832 165.519 183.513 161.621C183.752 160.758 183.979 159.889 184.178 159.009C194.257 162.688 205.967 160.002 213.396 151.329C223.027 140.087 221.809 123.092 210.675 113.368Z" fill="#F8F8F8"/>
<path d="M138.103 194.164C169.58 194.164 195.096 168.399 195.096 136.617C195.096 104.835 169.58 79.0705 138.103 79.0705C106.626 79.0705 81.1096 104.835 81.1096 136.617C81.1096 168.399 106.626 194.164 138.103 194.164Z" fill="#91A05F"/>
<path d="M63.8621 169.866C78.5811 169.866 90.5132 157.818 90.5132 142.956C90.5132 128.094 78.5811 116.046 63.8621 116.046C49.143 116.046 37.2109 128.094 37.2109 142.956C37.2109 157.818 49.143 169.866 63.8621 169.866Z" fill="#C7C773"/>
<path d="M85.6839 157.386C72.7305 164.445 56.5615 159.565 49.5692 146.486C44.944 137.833 45.5205 127.774 50.1726 119.903C38.015 127.255 33.6086 143.018 40.4075 155.737C47.3992 168.816 63.5682 173.696 76.5221 166.637C80.9068 164.247 84.3334 160.782 86.7139 156.755C86.3687 156.963 86.041 157.191 85.6839 157.386Z" fill="#AFB969"/>
<path d="M175.195 199.037C189.914 199.037 201.846 186.989 201.846 172.127C201.846 157.265 189.914 145.217 175.195 145.217C160.476 145.217 148.544 157.265 148.544 172.127C148.544 186.989 160.476 199.037 175.195 199.037Z" fill="#C7C773"/>
<path d="M187.289 187.837C172.786 190.381 158.987 180.572 156.467 165.929C155.614 160.97 156.191 156.105 157.855 151.724C150.973 157.698 147.267 167.05 148.933 176.734C151.452 191.378 165.252 201.187 179.754 198.643C189.346 196.961 196.816 190.284 200.064 181.727C196.541 184.786 192.2 186.976 187.289 187.837Z" fill="#AFB969"/>
<path d="M130.493 226.978C145.212 226.978 157.144 214.93 157.144 200.068C157.144 185.206 145.212 173.158 130.493 173.158C115.774 173.158 103.842 185.206 103.842 200.068C103.842 214.93 115.774 226.978 130.493 226.978Z" fill="#C7C773"/>
<path d="M142.859 218.495C128.333 220.901 114.626 210.961 112.243 196.294C111.13 189.44 112.712 182.783 116.169 177.372C107.455 182.986 102.412 193.472 104.192 204.424C106.574 219.091 120.281 229.031 134.808 226.625C142.545 225.343 148.929 220.801 152.869 214.633C149.913 216.538 146.538 217.886 142.859 218.495Z" fill="#AFB969"/>
<path d="M113.557 100.081C128.276 100.081 140.208 88.0333 140.208 73.1714C140.208 58.3094 128.276 46.2614 113.557 46.2614C98.8375 46.2614 86.9054 58.3094 86.9054 73.1714C86.9054 88.0333 98.8375 100.081 113.557 100.081Z" fill="#C7C773"/>
<path d="M105.977 83.5731C96.1703 75.0086 94.0676 60.8057 100.284 49.859C97.7566 51.3262 95.4144 53.2127 93.3989 55.5655C83.769 66.8069 84.9878 83.8024 96.1215 93.5252C107.255 103.249 124.087 102.017 133.716 90.7761C134.863 89.4367 135.846 88.0113 136.687 86.5305C127.136 92.0737 114.78 91.2619 105.977 83.5731Z" fill="#AFB969"/>
<path d="M83.2868 137.355C98.0058 137.355 109.938 125.307 109.938 110.445C109.938 95.5834 98.0058 83.5354 83.2868 83.5354C68.5678 83.5354 56.6356 95.5834 56.6356 110.445C56.6356 125.307 68.5678 137.355 83.2868 137.355Z" fill="#C7C773"/>
<path d="M95.3834 126.156C80.8805 128.7 67.0811 118.891 64.5616 104.248C63.7083 99.2887 64.2858 94.4239 65.9494 90.0427C59.0671 96.0167 55.361 105.369 57.0271 115.054C59.5466 129.697 73.346 139.506 87.8489 136.962C97.4409 135.28 104.91 128.603 108.159 120.046C104.636 123.105 100.295 125.295 95.3834 126.156Z" fill="#AFB969"/>
<path d="M133.639 163.527C148.359 163.527 160.291 151.479 160.291 136.617C160.291 121.755 148.359 109.707 133.639 109.707C118.92 109.707 106.988 121.755 106.988 136.617C106.988 151.479 118.92 163.527 133.639 163.527Z" fill="#C7C773"/>
<path d="M142.891 154.184C128.171 154.184 116.238 142.135 116.238 127.272C116.238 122.239 117.632 117.545 120.013 113.516C112.22 118.213 106.983 126.786 106.983 136.616C106.983 151.479 118.916 163.528 133.636 163.528C143.372 163.528 151.863 158.24 156.514 150.372C152.524 152.777 147.876 154.184 142.891 154.184Z" fill="#AFB969"/>
<path d="M162.976 110.733C177.695 110.733 189.627 98.6852 189.627 83.8232C189.627 68.9613 177.695 56.9133 162.976 56.9133C148.257 56.9133 136.325 68.9613 136.325 83.8232C136.325 98.6852 148.257 110.733 162.976 110.733Z" fill="#C7C773"/>
<path d="M164.68 97.7918C150.906 92.5485 143.95 77.0244 149.142 63.1166C149.54 62.0509 150.016 61.0412 150.529 60.0582C144.98 63.0188 140.425 67.9333 138.037 74.3297C132.844 88.2375 139.8 103.762 153.574 109.005C166.293 113.846 180.358 108.213 186.529 96.3743C180.013 99.852 172.12 100.624 164.68 97.7918Z" fill="#AFB969"/>
<path d="M87.7399 205.203C102.459 205.203 114.391 193.155 114.391 178.293C114.391 163.431 102.459 151.383 87.7399 151.383C73.0209 151.383 61.0887 163.431 61.0887 178.293C61.0887 193.155 73.0209 205.203 87.7399 205.203Z" fill="#C7C773"/>
<path d="M83.3547 197.695C72.2215 187.972 71.0027 170.977 80.6326 159.736C83.8934 155.929 87.9883 153.3 92.4004 151.826C83.4631 150.23 73.9478 153.255 67.5792 160.69C57.9493 171.931 59.1686 188.927 70.3013 198.65C77.6647 205.08 87.5118 206.69 96.1282 203.811C91.5523 202.994 87.1251 200.988 83.3547 197.695Z" fill="#AFB969"/>
<path d="M202.681 151.101C217.4 151.101 229.332 139.053 229.332 124.191C229.332 109.329 217.4 97.2809 202.681 97.2809C187.962 97.2809 176.029 109.329 176.029 124.191C176.029 139.053 187.962 151.101 202.681 151.101Z" fill="#C7C773"/>
<path d="M195.099 134.594C185.292 126.029 183.189 111.826 189.406 100.879C186.878 102.346 184.536 104.233 182.52 106.586C172.891 117.827 174.109 134.822 185.243 144.545C196.376 154.269 213.208 153.037 222.838 141.796C223.985 140.457 224.968 139.031 225.809 137.551C216.257 143.094 203.902 142.282 195.099 134.594Z" fill="#AFB969"/>
<path d="M131.69 191.279C137.236 191.279 141.731 186.74 141.731 181.141C141.731 175.542 137.236 171.002 131.69 171.002C126.145 171.002 121.649 175.542 121.649 181.141C121.649 186.74 126.145 191.279 131.69 191.279Z" fill="#FDE185"/>
<path d="M95.7804 154.089C101.326 154.089 105.821 149.55 105.821 143.95C105.821 138.351 101.326 133.812 95.7804 133.812C90.2349 133.812 85.7394 138.351 85.7394 143.95C85.7394 149.55 90.2349 154.089 95.7804 154.089Z" fill="#FDE185"/>
<path d="M166.299 131.342C172.486 131.342 177.503 126.277 177.503 120.029C177.503 113.782 172.486 108.717 166.299 108.717C160.111 108.717 155.095 113.782 155.095 120.029C155.095 126.277 160.111 131.342 166.299 131.342Z" fill="#FDE185"/>
<path d="M65.2411 89.2414C70.3778 89.2414 74.5418 85.0369 74.5418 79.8504C74.5418 74.6639 70.3778 70.4594 65.2411 70.4594C60.1045 70.4594 55.9404 74.6639 55.9404 79.8504C55.9404 85.0369 60.1045 89.2414 65.2411 89.2414Z" fill="#FDE185"/>
<path d="M196.563 84.1955C201.7 84.1955 205.864 79.991 205.864 74.8045C205.864 69.618 201.7 65.4135 196.563 65.4135C191.427 65.4135 187.263 69.618 187.263 74.8045C187.263 79.991 191.427 84.1955 196.563 84.1955Z" fill="#FDE185"/>
<path d="M209.798 187.449C214.935 187.449 219.099 183.244 219.099 178.058C219.099 172.871 214.935 168.667 209.798 168.667C204.662 168.667 200.498 172.871 200.498 178.058C200.498 183.244 204.662 187.449 209.798 187.449Z" fill="#FDE185"/>
<path d="M226.553 39.2473C201.487 13.9386 168.16 0 132.712 0C97.2631 0 63.9364 13.9386 38.87 39.2473C13.8046 64.5571 0 98.2073 0 134C0 169.793 13.8046 203.443 38.87 228.753C63.9364 254.061 97.2631 268 132.712 268C168.16 268 201.487 254.061 226.553 228.753C251.618 203.443 265.423 169.793 265.423 134C265.423 98.2073 251.618 64.5571 226.553 39.2473ZM221.054 223.201C197.457 247.027 166.083 260.148 132.712 260.148C99.3398 260.148 67.9659 247.027 44.3687 223.201C20.7714 199.374 7.77607 167.696 7.77607 134C7.77607 100.304 20.7714 68.6258 44.3687 44.7994C67.9659 20.9731 99.3398 7.85156 132.712 7.85156C166.083 7.85156 197.457 20.9731 221.054 44.7994C244.652 68.6258 257.647 100.304 257.647 134C257.647 167.696 244.652 199.374 221.054 223.201Z" fill="#163F7C"/>
<path d="M100.472 179.245C100.724 175.809 99.6359 172.48 97.4084 169.872C96.0066 168.23 93.5514 168.046 91.9247 169.461C90.2985 170.877 90.1165 173.356 91.5183 174.998C93.3171 177.105 93.0833 180.297 90.9962 182.113C88.9096 183.93 85.7484 183.693 83.9496 181.586C82.5473 179.944 80.0926 179.76 78.4659 181.176C76.8396 182.592 76.6577 185.07 78.0594 186.713C80.582 189.667 84.1517 191.183 87.7422 191.183C90.6966 191.183 93.665 190.156 96.073 188.06C98.6582 185.811 100.22 182.68 100.472 179.245Z" fill="#163F7C"/>
<path d="M84.2085 115.411C82.0975 115.809 80.7061 117.859 81.1001 119.991C81.449 121.878 83.082 123.197 84.9176 123.197C85.1545 123.197 85.394 123.175 85.6356 123.129C88.9892 122.497 91.8985 120.584 93.8269 117.743C95.7554 114.901 96.4729 111.471 95.8472 108.085C94.9513 103.238 91.4749 99.3893 86.7746 98.0415C84.7108 97.45 82.5594 98.6602 81.9726 100.746C81.3863 102.831 82.5853 105.003 84.6512 105.595C86.492 106.122 87.8534 107.629 88.2038 109.526C88.7092 112.261 86.9171 114.901 84.2085 115.411Z" fill="#163F7C"/>
<path d="M211.282 165.396C209.118 165.396 207.079 165.944 205.291 166.907C205.036 165.417 204.672 163.927 204.189 162.449C203.298 159.727 202.059 157.22 200.548 154.949C201.172 154.987 201.795 155.012 202.419 155.012C209.484 155.012 216.582 152.557 222.34 147.545C235.095 136.442 236.526 116.932 225.53 104.053C224.128 102.411 221.673 102.227 220.047 103.643C218.42 105.059 218.238 107.537 219.64 109.18C227.837 118.779 226.77 133.323 217.262 141.598C207.755 149.874 193.351 148.796 185.155 139.197C185 139.016 184.855 138.829 184.707 138.644C182.59 135.899 181.57 132.506 181.826 129.011C182.1 125.277 183.797 121.875 186.605 119.431C192.403 114.384 201.185 115.042 206.182 120.895C207.981 123.001 207.747 126.193 205.66 128.01C204.649 128.89 203.361 129.316 202.029 129.22C200.698 129.12 199.485 128.503 198.614 127.483C197.211 125.841 194.757 125.657 193.13 127.072C191.504 128.488 191.322 130.967 192.724 132.609C197.322 137.995 205.403 138.6 210.737 133.956C216.072 129.314 216.67 121.154 212.071 115.768C204.641 107.065 191.852 105.732 182.838 112.438C184.06 110.36 185.623 108.442 187.533 106.779C192.857 102.145 199.872 100.269 206.78 101.632C208.887 102.047 210.929 100.66 211.341 98.5313C211.753 96.4035 210.378 94.3412 208.271 93.9256C202.22 92.7316 196.111 93.4037 190.607 95.7377C191.793 92.8044 192.502 89.7533 192.752 86.6885C194.116 87.1915 195.588 87.4664 197.122 87.4664C204.165 87.4664 209.895 81.6813 209.895 74.5699C209.895 67.4585 204.165 61.6734 197.122 61.6734C193.171 61.6734 189.633 63.495 187.289 66.3498C185.151 63.2767 182.427 60.5465 179.138 58.3569C172.328 53.8224 164.176 52.2369 156.185 53.8931C150.407 55.0902 145.219 57.8853 141.088 61.9367C139.853 58.9579 138.156 56.1747 136.042 53.6994C130.716 47.4605 123.301 43.6892 115.166 43.0809C107.029 42.4717 99.1475 45.0993 92.9686 50.4776C84.5424 57.812 80.8333 68.8665 82.897 79.6185C81.1656 79.6446 79.4248 79.8106 77.6876 80.1382C77.4766 80.178 77.2697 80.2283 77.0603 80.2722C77.1401 79.6907 77.1847 79.0976 77.1847 78.4941C77.1847 71.3832 71.4548 65.5977 64.4123 65.5977C57.3698 65.5977 51.6398 71.3827 51.6398 78.4941C51.6398 84.0169 55.0966 88.7383 59.9395 90.5724C59.2915 91.3518 58.6772 92.1673 58.0997 93.0179C53.7767 99.3866 51.9986 106.991 53.0255 114.587C52.5652 114.767 52.108 114.954 51.6575 115.156C36.264 122.051 29.2956 140.306 36.1245 155.849C40.137 164.982 48.1204 171.437 57.5864 173.49C56.2422 182.134 58.5134 191.297 64.602 198.428C70.6181 205.474 79.1578 209.126 87.7643 209.126C92.1443 209.126 96.5404 208.176 100.631 206.251C103.503 220.877 116.268 231.093 130.57 231.093C132.417 231.093 134.289 230.923 136.169 230.57C144.189 229.064 151.149 224.494 155.764 217.702C159.458 212.269 161.291 205.934 161.116 199.472C165.422 201.731 170.253 202.966 175.213 202.966C178.1 202.966 181.03 202.544 183.925 201.67C184.209 201.588 184.491 201.5 184.773 201.406C192.365 198.873 198.312 193.6 201.903 187.034C204.238 189.587 207.578 191.189 211.283 191.189C218.326 191.189 224.055 185.404 224.055 178.293C224.055 171.181 218.326 165.396 211.282 165.396ZM142.605 188.869C144.004 196.468 139.022 203.798 131.496 205.212C128.789 205.722 126.174 203.91 125.671 201.175C125.201 198.625 126.729 196.16 129.134 195.426C129.667 195.495 130.21 195.534 130.762 195.534C135.931 195.534 140.39 192.415 142.398 187.944C142.476 188.248 142.547 188.556 142.605 188.869ZM135.758 182.638C135.758 185.419 133.517 187.683 130.762 187.683C128.007 187.683 125.765 185.42 125.765 182.638C125.765 179.856 128.007 177.575 130.762 177.593C131.556 177.598 131.977 177.754 132.25 177.822C134.281 178.463 135.758 180.379 135.758 182.638ZM144.661 172.91C138.819 169.835 131.961 168.626 124.998 169.934C122.415 170.42 119.969 171.222 117.691 172.293C116.667 167.098 114.326 162.209 110.867 158.158C109.425 156.468 107.836 154.981 106.142 153.689C106.609 153.319 107.051 152.918 107.463 152.487C112.632 161.146 121.895 167.039 132.524 167.426C132.893 167.445 133.264 167.454 133.637 167.454C137.834 167.454 141.834 166.594 145.478 165.042C144.876 167.593 144.595 170.235 144.661 172.91ZM132.853 97.1908C133.296 96.805 133.723 96.4035 134.142 95.9952C135.853 100.152 138.439 103.857 141.75 106.892C139.165 106.171 136.446 105.779 133.637 105.779C126.027 105.779 119.064 108.611 113.71 113.277C113.961 110.479 113.84 107.631 113.315 104.794C113.308 104.751 113.297 104.71 113.289 104.668C120.427 104.588 127.339 101.991 132.853 97.1908ZM133.637 159.603C125.983 159.603 119.756 153.315 119.756 145.587C119.756 137.859 125.983 131.572 133.637 131.572C136.392 131.572 138.633 133.835 138.633 136.617C138.633 139.399 136.392 141.661 133.637 141.661C131.49 141.661 129.749 143.419 129.749 145.587C129.749 147.755 131.49 149.513 133.637 149.513C140.679 149.513 146.409 143.728 146.409 136.617C146.409 129.506 140.679 123.72 133.637 123.72C122.257 123.72 112.906 132.63 112.051 143.902C111.29 141.611 110.872 139.163 110.872 136.617C110.872 123.942 121.084 113.63 133.637 113.63C146.19 113.63 156.402 123.942 156.402 136.617C156.402 149.291 146.19 159.603 133.637 159.603ZM98.2843 148.576C95.5295 148.576 93.2879 146.313 93.2879 143.531C93.2879 140.75 95.529 138.486 98.2843 138.486C101.04 138.486 103.281 140.749 103.281 143.531C103.281 146.313 101.04 148.576 98.2843 148.576ZM161.031 119.994C161.031 117.213 163.273 114.949 166.028 114.949C168.783 114.949 171.024 117.212 171.024 119.994C171.024 122.776 168.783 125.039 166.028 125.039C163.273 125.039 161.031 122.776 161.031 119.994ZM62.0167 138.733C63.2371 138.187 64.5942 138.153 65.8394 138.637C67.0847 139.122 68.0681 140.067 68.6098 141.299C69.151 142.53 69.1847 143.901 68.7047 145.159C68.2246 146.416 67.2884 147.409 66.0686 147.956C64.1054 148.835 63.2205 151.155 64.0909 153.136C64.6746 154.465 65.9006 155.302 67.236 155.446C64.5688 157.884 62.4242 160.698 60.8146 163.743C58.2417 162.273 56.1743 159.999 54.9571 157.227C53.4537 153.805 53.3599 149.997 54.6932 146.504C56.0266 143.011 58.6274 140.251 62.0167 138.733ZM75.9603 147.983C76.8804 145.573 77.0619 143 76.5124 140.537C78.7078 141.041 80.9572 141.299 83.2273 141.299C84.0583 141.299 84.8918 141.258 85.7265 141.189C85.5875 141.949 85.5113 142.731 85.5113 143.531C85.5113 144.922 85.7332 146.261 86.1386 147.517C82.2376 147.719 78.361 148.672 74.7337 150.393C75.2184 149.642 75.6337 148.838 75.9603 147.983ZM163.925 132.713C164.61 132.828 165.311 132.891 166.028 132.891C168.442 132.891 170.701 132.211 172.629 131.031C173.437 134.645 174.903 138.146 177.034 141.352C173.269 141.118 169.402 141.579 165.607 142.845C164.838 143.102 164.09 143.396 163.354 143.707C163.888 141.429 164.178 139.057 164.178 136.617C164.178 135.293 164.086 133.993 163.925 132.713ZM197.123 69.5245C199.878 69.5245 202.12 71.7878 202.12 74.5694C202.12 77.3509 199.879 79.6143 197.123 79.6143C194.368 79.6143 192.127 77.3514 192.127 74.5694C192.127 71.7873 194.368 69.5245 197.123 69.5245ZM181.331 96.7547C177.983 101.88 172.859 105.383 166.903 106.617C160.947 107.851 154.87 106.67 149.794 103.29C144.718 99.91 141.249 94.7364 140.026 88.7216C139.956 88.3756 139.743 86.9555 139.649 86.0845C139.198 80.938 140.462 75.8241 143.321 71.4465C147.535 64.9952 156.162 63.2076 162.551 67.4616C165.646 69.5229 167.761 72.6771 168.507 76.3444C169.252 80.0116 168.539 83.7526 166.498 86.878C164.981 89.2005 161.875 89.8433 159.576 88.3122C158.462 87.5705 157.7 86.4352 157.432 85.1151C157.163 83.7955 157.42 82.4487 158.155 81.3238C159.337 79.5138 158.843 77.0793 157.05 75.8853C155.259 74.6929 152.846 75.1912 151.664 77.0013C149.786 79.877 149.129 83.3192 149.815 86.6938C150.501 90.0684 152.447 92.9713 155.295 94.8672C157.456 96.3062 159.894 96.9934 162.307 96.9934C166.46 96.9934 170.537 94.9552 172.989 91.2006C176.174 86.3247 177.287 80.4879 176.124 74.7662C175.071 69.5868 172.262 65.0674 168.158 61.8713C170.508 62.5026 172.768 63.5201 174.858 64.9114C185.338 71.8889 188.241 86.1735 181.331 96.7547ZM98.0469 56.4244C102.653 52.4154 108.53 50.4572 114.593 50.911C120.657 51.3643 126.183 54.1752 130.154 58.8259C132.813 61.9409 134.586 65.7044 135.305 69.7234C132.586 74.9107 131.415 80.7056 131.885 86.5393C130.74 88.2808 129.365 89.8611 127.776 91.244C123.01 95.3928 116.844 97.3311 110.634 96.6977C108.347 92.0459 104.918 88.0317 100.559 85.0151C98.0013 83.2448 95.2413 81.9001 92.3631 80.9925C91.9401 76.4679 93.671 72.0768 97.1189 69.0759C102.916 64.03 111.699 64.6869 116.696 70.54C117.567 71.5607 117.993 72.863 117.895 74.2066C117.796 75.5503 117.185 76.7751 116.174 77.655C115.163 78.5349 113.872 78.9636 112.543 78.8652C111.212 78.7658 109.999 78.1486 109.128 77.1285C107.725 75.4864 105.271 75.3027 103.644 76.7181C102.018 78.134 101.836 80.6125 103.238 82.255C105.76 85.2098 109.33 86.7252 112.92 86.7252C115.875 86.7252 118.843 85.6982 121.251 83.6023C123.835 81.3531 125.397 78.2224 125.649 74.7871C125.901 71.3518 124.813 68.0227 122.586 65.4139C115.143 56.6971 102.325 55.3733 93.3081 62.1157C94.5466 60.0183 96.1314 58.0916 98.0469 56.4244ZM79.1153 87.8563C80.5243 87.5909 81.9369 87.4595 83.3403 87.4595C87.8887 87.4595 92.3294 88.8393 96.1625 91.4921C101.178 94.9635 104.555 100.199 105.671 106.235C106.786 112.27 105.508 118.383 102.07 123.447C98.6316 128.512 93.4466 131.921 87.4688 133.048C83.825 133.735 80.1329 132.947 77.0748 130.831C74.0168 128.715 71.9577 125.522 71.277 121.843C70.5968 118.162 71.3765 114.435 73.4724 111.347C74.6865 109.559 74.2345 107.115 72.4636 105.889C70.6922 104.664 68.2723 105.12 67.0582 106.908C64.1002 111.265 62.8291 116.439 63.3972 121.636C62.2179 119.493 61.3713 117.15 60.913 114.67C59.7974 108.635 61.0758 102.521 64.5139 97.4572C67.9525 92.3924 73.1376 88.9827 79.1153 87.8563ZM64.4128 73.4492C67.1676 73.4492 69.4092 75.712 69.4092 78.4941C69.4092 81.2762 67.1676 83.539 64.4128 83.539C61.658 83.539 59.4164 81.2757 59.4164 78.4941C59.4164 75.7126 61.658 73.4492 64.4128 73.4492ZM54.8119 122.333C54.8939 122.296 54.9794 122.267 55.0623 122.23C56.3672 125.437 58.1914 128.383 60.474 130.962C59.9296 131.124 59.3915 131.319 58.8638 131.555C53.5761 133.924 49.518 138.23 47.4376 143.68C45.5579 148.605 45.5024 153.929 47.2386 158.85C45.6134 157.049 44.2489 154.976 43.2334 152.665C38.1432 141.079 43.3371 127.472 54.8119 122.333ZM70.4921 193.301C70.3361 193.118 70.1894 192.93 70.0401 192.743C65.5408 186.897 66.3267 178.423 71.9426 173.534C74.3967 171.397 77.5295 170.191 80.7628 170.136C82.91 170.099 84.6207 168.312 84.585 166.145C84.5492 163.999 82.8156 162.285 80.6985 162.285C80.6767 162.285 80.6539 162.285 80.6316 162.285C76.1427 162.362 71.7819 163.862 68.1785 166.536C69.3999 164.46 70.9623 162.544 72.8706 160.882C82.3781 152.606 96.7815 153.684 104.977 163.283C108.268 167.137 110.198 172.006 110.464 177.066C104.633 182.243 100.865 189.565 100.166 197.544C90.7172 203.784 77.9826 202.074 70.4921 193.301ZM149.353 213.259C145.912 218.321 140.725 221.728 134.746 222.85C128.767 223.975 122.715 222.679 117.701 219.204C112.688 215.729 109.314 210.492 108.202 204.456C106.477 195.09 110.665 185.973 118.092 181.037C118.027 181.562 117.99 182.095 117.99 182.638C117.99 185.993 119.267 189.052 121.354 191.349C118.619 194.247 117.248 198.383 118.026 202.611C119.168 208.808 124.548 213.15 130.577 213.149C131.35 213.149 132.133 213.078 132.919 212.931C138.606 211.862 143.541 208.622 146.814 203.806C149.524 199.819 150.821 195.147 150.59 190.399C150.981 190.935 151.389 191.454 151.811 191.96C152.31 193.262 152.702 194.626 152.965 196.048C154.076 202.084 152.794 208.197 149.353 213.259ZM182.333 193.951C182.107 194.026 181.88 194.091 181.654 194.158C178.332 195.084 174.837 194.738 171.738 193.163C168.425 191.48 165.961 188.595 164.798 185.04C163.634 181.486 163.912 177.686 165.578 174.342C167.245 170.998 170.102 168.51 173.622 167.335C176.238 166.462 179.07 167.901 179.935 170.542C180.799 173.183 179.374 176.042 176.758 176.916C174.719 177.595 173.613 179.816 174.287 181.875C174.96 183.933 177.16 185.051 179.198 184.37C182.437 183.29 185.066 181 186.6 177.923C188.133 174.846 188.389 171.349 187.318 168.079C185.109 161.327 177.869 157.649 171.183 159.88C165.691 161.712 161.234 165.595 158.633 170.813C156.559 174.976 155.869 179.591 156.594 184.103C155.804 182.809 154.925 181.584 153.965 180.434C153.827 180.073 153.697 179.708 153.575 179.337C149.637 167.302 156.129 154.276 168.048 150.299C170.411 149.511 172.811 149.137 175.174 149.137C184.729 149.137 193.649 155.264 196.807 164.913C200.744 176.947 194.251 189.974 182.333 193.951ZM211.282 183.337C208.528 183.337 206.286 181.074 206.286 178.292C206.286 175.51 208.527 173.247 211.282 173.247C214.038 173.247 216.279 175.511 216.279 178.292C216.279 181.074 214.038 183.337 211.282 183.337Z" fill="#163F7C"/>
<path d="M143.101 46.6572C143.343 46.7028 143.584 46.7253 143.821 46.7253C145.655 46.7253 147.288 45.4088 147.638 43.5219L148.749 37.5416C149.144 35.4107 147.754 33.3593 145.644 32.9599C143.535 32.5621 141.501 33.9639 141.106 36.0953L139.995 42.0756C139.6 44.206 140.99 46.2579 143.101 46.6572Z" fill="#163F7C"/>
<path d="M161.959 45.9771C162.742 45.9771 163.531 45.7394 164.216 45.2453L166.807 43.3761C168.555 42.1157 168.959 39.6639 167.711 37.8999C166.463 36.1354 164.035 35.7271 162.287 36.9876L159.696 38.8568C157.949 40.1172 157.544 42.569 158.792 44.333C159.551 45.406 160.746 45.9771 161.959 45.9771Z" fill="#163F7C"/>
<path d="M173.804 212.342C172.7 210.483 170.311 209.879 168.47 210.996C166.628 212.111 166.031 214.522 167.136 216.382L169.357 220.12C170.086 221.347 171.373 222.026 172.694 222.026C173.375 222.026 174.064 221.846 174.691 221.466C176.532 220.351 177.129 217.939 176.025 216.08L173.804 212.342Z" fill="#163F7C"/>
<path d="M187.247 213.628L185.026 212.88C182.989 212.194 180.787 213.306 180.108 215.364C179.43 217.421 180.53 219.644 182.567 220.329L184.789 221.076C185.197 221.213 185.611 221.279 186.018 221.279C187.647 221.279 189.164 220.238 189.706 218.593C190.385 216.536 189.284 214.313 187.247 213.628Z" fill="#163F7C"/>
<path d="M86.5031 213.338L83.1713 215.58C81.3849 216.783 80.9017 219.22 82.0925 221.025C82.8416 222.159 84.0749 222.773 85.3315 222.773C86.0728 222.773 86.8219 222.56 87.4844 222.114L90.8162 219.871C92.6026 218.669 93.0858 216.231 91.895 214.427C90.7042 212.623 88.2906 212.136 86.5031 213.338Z" fill="#163F7C"/>
<path d="M39.7976 105.781C40.7162 105.781 41.6385 105.454 42.3788 104.789L45.7106 101.799C47.3155 100.359 47.4602 97.8777 46.0335 96.2571C44.6074 94.6365 42.1496 94.49 40.5447 95.931L37.2129 98.9209C35.6079 100.361 35.4633 102.842 36.8899 104.463C37.6582 105.336 38.7251 105.781 39.7976 105.781Z" fill="#163F7C"/>
<path d="M225.099 155.52L223.989 156.641C222.47 158.175 222.471 160.66 223.989 162.193C224.748 162.959 225.743 163.342 226.738 163.342C227.733 163.342 228.728 162.959 229.488 162.192L230.598 161.071C232.117 159.538 232.116 157.052 230.598 155.519C229.079 153.986 226.617 153.987 225.099 155.52Z" fill="#163F7C"/>
</g>
<defs>
<clipPath id="clip0">
<rect width="265.423" height="268" fill="white"/>
</clipPath>
</defs>
</svg>
