<svg width="22" height="22" viewBox="0 0 22 22" fill="none" xmlns="http://www.w3.org/2000/svg">
<path d="M21.267 16.3466C21.0816 17.7616 20.3888 19.061 19.3172 20.0035C18.2456 20.9459 16.8683 21.4671 15.4413 21.4703C7.12191 21.4703 0.353241 14.7016 0.353241 6.38222C0.356387 4.9552 0.877628 3.57787 1.82005 2.50632C2.76248 1.43477 4.06196 0.741904 5.4769 0.556547C5.83759 0.516554 6.20165 0.592495 6.51627 0.773357C6.8309 0.95422 7.07973 1.2306 7.22669 1.56242L9.33273 6.47652C9.44198 6.73159 9.48578 7.00991 9.46016 7.28621C9.43455 7.5625 9.34032 7.82803 9.18604 8.05867L7.44673 10.72C8.23433 12.3184 9.53207 13.6088 11.1349 14.3873L13.7649 12.6375C13.9953 12.4822 14.2614 12.3882 14.5383 12.3643C14.8151 12.3405 15.0934 12.3876 15.347 12.5013L20.2611 14.5968C20.5929 14.7438 20.8693 14.9926 21.0502 15.3072C21.231 15.6219 21.307 15.9859 21.267 16.3466Z" fill="#838383"/>
</svg>
