<?xml version="1.0" encoding="UTF-8" standalone="no"?>
<!DOCTYPE svg PUBLIC "-//W3C//DTD SVG 1.1//EN" "http://www.w3.org/Graphics/SVG/1.1/DTD/svg11.dtd">
<svg width="100%" height="100%" viewBox="0 0 1734 1734" version="1.1" xmlns="http://www.w3.org/2000/svg" xmlns:xlink="http://www.w3.org/1999/xlink" xml:space="preserve" xmlns:serif="http://www.serif.com/" style="fill-rule:evenodd;clip-rule:evenodd;stroke-linejoin:round;stroke-miterlimit:2;">
    <g transform="matrix(4.16667,0,0,4.16667,0,0)">
        <circle cx="208.239" cy="48" r="12" style="fill:rgb(255,208,0);"/>
        <path d="M367.998,95.999C367.998,78.326 353.672,63.999 335.999,63.999L291.575,63.999C285.649,57.416 278.037,52.379 269.291,49.863C261.924,47.745 256.254,42.075 254.135,34.708C248.37,14.664 229.897,0 207.998,0C186.1,0 167.628,14.663 161.864,34.706C159.742,42.082 154.058,47.745 146.682,49.871C137.946,52.389 130.341,57.421 124.42,63.999L79.999,63.999C62.325,63.999 47.999,78.326 47.999,95.999L47.999,383.998C47.999,401.671 62.325,415.998 79.999,415.998L335.999,415.998C353.673,415.998 367.999,401.671 367.999,383.998C367.999,293.119 367.998,206.096 367.998,95.999ZM128,95.741C128.11,81.675 137.614,69.135 151.113,65.245C163.823,61.583 173.59,51.819 177.24,39.129C181.157,25.51 193.805,16 207.998,16C222.192,16 234.84,25.51 238.756,39.13C242.408,51.828 252.169,61.589 264.867,65.24C278.485,69.157 287.997,81.806 287.997,95.998L287.997,111.998L128,111.998L128,95.741ZM335.999,399.998L79.999,399.998C71.176,399.998 63.999,392.82 63.999,383.998L63.999,95.999C63.999,87.177 71.176,79.999 79.999,79.999L114.741,79.999C113.011,84.891 112.043,90.142 112.001,95.616L112.001,127.999L303.999,127.999L303.999,95.999C303.999,90.384 303.007,85.008 301.235,79.999L335.999,79.999C344.821,79.999 351.998,87.177 351.998,95.999C351.998,141.742 351.997,356.253 352,383.998C351.999,392.82 344.822,399.998 335.999,399.998Z" style="fill:rgb(255,208,0);fill-rule:nonzero;"/>
        <rect x="159.999" y="176" width="144" height="16" style="fill:rgb(255,208,0);"/>
        <rect x="159.999" y="224" width="144" height="16" style="fill:rgb(255,208,0);"/>
        <rect x="159.999" y="272" width="144" height="16" style="fill:rgb(255,208,0);"/>
        <rect x="159.999" y="320" width="144" height="16" style="fill:rgb(255,208,0);"/>
        <circle cx="119.999" cy="184" r="8" style="fill:rgb(255,208,0);"/>
        <circle cx="119.999" cy="232" r="8" style="fill:rgb(255,208,0);"/>
        <circle cx="119.999" cy="280" r="8" style="fill:rgb(255,208,0);"/>
        <circle cx="119.999" cy="328" r="8" style="fill:rgb(255,208,0);"/>
    </g>
</svg>
