<svg width="100" height="100" viewBox="0 0 100 100" fill="none" xmlns="http://www.w3.org/2000/svg">
<rect x="18" y="18" width="64" height="64" rx="7" stroke="white" stroke-width="6"/>
<rect x="17" y="34" width="65" height="6" fill="white"/>
<rect x="32" y="9" width="8" height="18" rx="2" fill="white"/>
<rect x="60" y="9" width="8" height="18" rx="2" fill="white"/>
<rect x="25" y="44" width="6" height="6" fill="white"/>
<rect x="25" y="55" width="6" height="6" fill="white"/>
<rect x="36" y="44" width="6" height="6" fill="white"/>
<rect x="36" y="55" width="6" height="6" fill="white"/>
<rect x="47" y="44" width="6" height="6" fill="white"/>
<rect x="47" y="55" width="6" height="6" fill="white"/>
<rect x="47" y="66" width="6" height="6" fill="white"/>
<rect x="58" y="44" width="6" height="6" fill="white"/>
<rect x="58" y="55" width="6" height="6" fill="white"/>
<rect x="58" y="66" width="6" height="6" fill="white"/>
<rect x="69" y="44" width="6" height="6" fill="white"/>
<rect x="69" y="55" width="6" height="6" fill="white"/>
<rect x="69" y="66" width="6" height="6" fill="white"/>
</svg>
