<?xml version="1.0" encoding="UTF-8" standalone="no"?>
<!DOCTYPE svg  PUBLIC '-//W3C//DTD SVG 1.1//EN'  'http://www.w3.org/Graphics/SVG/1.1/DTD/svg11.dtd'>
<svg xmlns="http://www.w3.org/2000/svg">
<defs>
<font id="BebasNeueBook-Regular" horiz-adv-x="381">
<font-face underline-position="-60" font-weight="400" descent="-200" panose-1="0 0 5 0 0 0 0 0 0 0" units-per-em="1000" unicode-range="U+0020-2248" bbox="-41 -154 814 872" x-height="700" underline-thickness="50" font-family="BebasNeueBook" ascent="800" cap-height="700"/>
<missing-glyph horiz-adv-x="1000"/>
<glyph glyph-name=".notdef" horiz-adv-x="1000"/>
<glyph glyph-name=".null" horiz-adv-x="0"/>
<glyph glyph-name="nonmarkingreturn" horiz-adv-x="333"/>
<glyph glyph-name="space" horiz-adv-x="155" unicode=" "/>
<glyph glyph-name="exclam" horiz-adv-x="126" unicode="!" d="M41 87h44v-87h-44v87zM46 155l-6 180v366h46v-366l-6 -180h-34z"/>
<glyph glyph-name="quotedbl" horiz-adv-x="206" unicode='&quot;' d="M121 701h45l-6 -174h-33zM40 701h45l-6 -174h-34z"/>
<glyph glyph-name="numbersign" horiz-adv-x="414" unicode="#" d="M256 256l24 227h-118l-23 -227h117zM380 483h-61l-24 -227h61l-3 -34h-61l-24 -222h-39l24 222h-118l-23 -222h-39l24 222h-66l3 34h66l24 227h-67l3 34h67l19 184h39l-19 -184h117l19 184h39l-19 -184h61z"/>
<glyph glyph-name="dollar" horiz-adv-x="377" unicode="$" d="M209 761v-60q67 -6 98.5 -52.5t31.5 -120.5v-16h-44v18q0 130 -104 130t-104 -129q0 -47 26 -83.5t63.5 -62t74.5 -52t63 -67.5t26 -94q0 -74 -32 -120.5t-99 -52.5v-56h-39v56q-67 5 -99.5 51.5t-32.5 121.5v39h44v-41q0 -130 106 -130t106 130q0 39 -18.5 71t-47 53 t-61 45t-61 47t-47 60t-18.5 82q0 160 129 173v60h39z"/>
<glyph glyph-name="percent" horiz-adv-x="605" unicode="%" d="M473 406q-63 0 -63 -82v-214q0 -83 63 -83t63 83v214q0 82 -63 82zM473 436q48 0 71 -31.5t23 -82.5v-210q0 -51 -23 -82.5t-71 -31.5t-71.5 31.5t-23.5 82.5v210q0 51 23.5 82.5t71.5 31.5zM132 673q-63 0 -63 -83v-216q0 -82 63 -82t63 82v216q0 83 -63 83zM424 701h30 l-276 -701h-30zM132 702q48 0 71.5 -31t23.5 -82v-213q0 -51 -23.5 -82t-71.5 -31t-71 31t-23 82v213q0 51 23 82t71 31z"/>
<glyph glyph-name="ampersand" horiz-adv-x="403" unicode="&amp;" d="M290 344h-102q-49 -3 -75.5 -35.5t-26.5 -85.5v-64q0 -57 25.5 -90t77.5 -33q44 0 72 26t29 72v210zM307 658h-99q-122 0 -122 -130v-28q0 -48 25.5 -80t70.5 -34h108v78h46v-78h38v-42h-38v-252q0 -63 18 -92h-48q-15 27 -15 67q-31 -73 -118 -73q-67 0 -100 43.5 t-33 118.5v66q0 52 23 91t69 54q-46 13 -69 51t-23 91v17q0 174 168 174h99v-42z"/>
<glyph glyph-name="quotesingle" horiz-adv-x="122" unicode="&apos;" d="M39 701h44l-5 -174h-34z"/>
<glyph glyph-name="parenleft" horiz-adv-x="231" unicode="(" d="M200 662h-20q-52 0 -71.5 -29t-19.5 -87v-391q0 -59 19.5 -87.5t71.5 -28.5h20v-39h-22q-75 0 -105 38.5t-30 116.5v391q0 78 30 116.5t105 38.5h22v-39z"/>
<glyph glyph-name="parenright" horiz-adv-x="231" unicode=")" d="M31 701h22q75 0 105.5 -38.5t30.5 -116.5v-391q0 -78 -30.5 -116.5t-105.5 -38.5h-22v39h20q52 0 72 29t20 87v391q0 58 -20 87t-72 29h-20v39z"/>
<glyph glyph-name="asterisk" horiz-adv-x="394" unicode="*" d="M361 556l-148 -33l95 -118l-31 -23l-80 129l-80 -128l-32 22l96 118l-148 35l12 37l142 -53l-10 153h39l-9 -153l142 51z"/>
<glyph glyph-name="plus" horiz-adv-x="388" unicode="+" d="M354 333h-143v-146h-34v146h-142v34h142v144h34v-144h143v-34z"/>
<glyph glyph-name="comma" horiz-adv-x="134" unicode="," d="M45 -76l20 76h-15v88h44v-84l-29 -80h-20z"/>
<glyph glyph-name="hyphen" horiz-adv-x="260" unicode="-" d="M38 329v42h184v-42h-184z"/>
<glyph glyph-name="period" horiz-adv-x="125" unicode="." d="M40 88h45v-88h-45v88z"/>
<glyph glyph-name="slash" horiz-adv-x="371" unicode="/" d="M303 700h41l-276 -700h-41z"/>
<glyph glyph-name="zero" d="M83 532v-363q0 -61 26.5 -97t81.5 -36t81.5 36t26.5 97v363q0 61 -26.5 96.5t-81.5 35.5t-81.5 -35.5t-26.5 -96.5zM37 171v358q0 81 38.5 129t115.5 48t115.5 -48t38.5 -129v-358q0 -81 -38.5 -129t-115.5 -48t-115.5 48t-38.5 129z" unicode="0"/>
<glyph glyph-name="one" horiz-adv-x="281" unicode="1" d="M173 0v622q-40 -53 -109 -59v40q87 6 119 98h36v-701h-46z"/>
<glyph glyph-name="two" horiz-adv-x="377" unicode="2" d="M191 706q78 0 114.5 -48t36.5 -130q0 -56 -26 -106.5t-63.5 -90.5t-75 -80.5t-64 -92t-27.5 -108.5v-8h250v-42h-296v34q0 68 26.5 126.5t64 99.5t75 80t64 86t26.5 100q0 138 -107 138q-55 0 -80 -37t-25 -98v-48h-44v45q0 81 37 130.5t114 49.5z"/>
<glyph glyph-name="three" horiz-adv-x="378" unicode="3" d="M189 706q77 0 114 -48t37 -129v-17q0 -52 -24.5 -90.5t-68.5 -54.5q93 -28 93 -142v-54q0 -81 -37 -129t-114 -48t-114 48t-37 129v40h44v-42q0 -133 106 -133t106 136v54q0 113 -104 118h-47v42h49q47 3 74.5 35t27.5 82v25q0 136 -106 136t-106 -132v-28h-44v25 q0 81 37 129t114 48z"/>
<glyph glyph-name="four" horiz-adv-x="403" unicode="4" d="M270 615l-197 -418h197v418zM374 155h-59v-155h-45v155h-239v43l232 503h52v-504h59v-42z"/>
<glyph glyph-name="five" horiz-adv-x="378" unicode="5" d="M105 658l-13 -250q34 54 113 54q69 0 102.5 -46.5t33.5 -124.5v-120q0 -80 -37.5 -128.5t-114.5 -48.5q-76 0 -113.5 48.5t-37.5 128.5v38h44v-40q0 -60 26 -96t80 -36q55 0 81 36t26 96v118q0 60 -26 96t-81 36q-78 0 -100 -80v-12h-43l18 374h263v-43h-221z"/>
<glyph glyph-name="six" horiz-adv-x="382" unicode="6" d="M192 385q-56 0 -82.5 -35.5t-26.5 -95.5v-85q0 -132 109 -132q55 0 81.5 35.5t26.5 96.5v85q0 60 -26.5 95.5t-81.5 35.5zM192 706q77 0 114 -46.5t37 -127.5v-8h-44v11q0 129 -106 129q-110 0 -110 -138v-162q38 64 125 64q70 0 104 -46.5t34 -124.5v-86 q0 -81 -38.5 -129t-115.5 -48q-78 0 -116.5 48t-38.5 129v356q0 83 38 131t117 48z"/>
<glyph glyph-name="seven" horiz-adv-x="378" unicode="7" d="M97 0l197 658h-257v43h304v-42l-197 -659h-47z"/>
<glyph glyph-name="eight" horiz-adv-x="388" unicode="8" d="M194 344q-113 0 -113 -123v-53q0 -62 28.5 -97t84.5 -35t84 35t29 97v53q0 123 -113 123zM194 664q-56 0 -84.5 -33.5t-28.5 -95.5v-29q0 -120 113 -120t113 120v29q0 62 -29 95.5t-84 33.5zM194 706q77 0 118 -45t41 -125v-22q0 -122 -93 -147q93 -27 93 -150v-50 q0 -80 -40.5 -126.5t-118.5 -46.5q-79 0 -119 46.5t-40 126.5v50q0 122 94 150q-94 26 -94 147v22q0 80 40.5 125t118.5 45z"/>
<glyph glyph-name="nine" horiz-adv-x="382" unicode="9" d="M190 664q-55 0 -81.5 -35.5t-26.5 -96.5v-85q0 -61 26.5 -96.5t81.5 -35.5t81.5 35.5t26.5 96.5v85q0 61 -26.5 96.5t-81.5 35.5zM190 707q78 0 116 -48.5t38 -129.5v-356q0 -82 -38 -130.5t-116 -48.5q-77 0 -115 47.5t-38 127.5v9h44v-11q0 -60 26.5 -95.5t81.5 -35.5 q109 0 109 139v172q-31 -74 -124 -74q-70 0 -104 46t-34 125v85q0 81 38.5 129.5t115.5 48.5z"/>
<glyph glyph-name="colon" horiz-adv-x="125" unicode=":" d="M40 88h45v-88h-45v88zM40 469h45v-88h-45v88z"/>
<glyph glyph-name="semicolon" horiz-adv-x="134" unicode=";" d="M45 -76l20 76h-15v88h44v-84l-29 -80h-20zM50 469h44v-88h-44v88z"/>
<glyph glyph-name="less" horiz-adv-x="370" unicode="&lt;" d="M330 235v-36l-294 134v34l294 134v-36l-249 -115z"/>
<glyph glyph-name="equal" horiz-adv-x="305" unicode="=" d="M38 320h229v-34h-229v34zM38 442h229v-34h-229v34z"/>
<glyph glyph-name="greater" horiz-adv-x="370" unicode="&gt;" d="M40 199v36l250 115l-250 115v36l294 -134v-34z"/>
<glyph glyph-name="question" horiz-adv-x="363" unicode="?" d="M146 87h44v-87h-44v87zM182 706q77 0 113 -48t36 -130q0 -52 -23 -98.5t-50 -75t-50 -71.5t-23 -90q0 -17 5 -37h-42q-5 20 -5 39q0 42 14.5 78t35.5 63l42 54t35.5 63t14.5 77q0 134 -104 134t-104 -135v-49h-44v46q0 82 36 131t113 49z"/>
<glyph glyph-name="at" horiz-adv-x="688" unicode="@" d="M360 492q-43 0 -67 -29.5t-30 -78.5l-9 -94q-1 -8 -1 -23q0 -90 73 -90h2q43 0 66 31.5t28 81.5l11 97q1 6 1 19q0 39 -18 62.5t-56 23.5zM390 730q137 0 201.5 -75t64.5 -208q0 -121 -46.5 -212t-124.5 -92q-33 0 -50 19t-19 51q-32 -76 -105 -76h-3q-50 1 -73.5 34 t-23.5 87q0 10 2 32l10 99q7 65 38 104.5t86 39.5h2q73 -2 91 -71l7 66h41l-30 -286q0 -2 -0.5 -5.5t-0.5 -5.5q0 -49 39 -49q34 0 59.5 26.5t39 68t19.5 83t6 81.5v5q0 118 -57.5 182.5t-174.5 64.5q-80 0 -141.5 -32.5t-98.5 -90t-55.5 -130t-18.5 -156.5q0 -294 273 -294 q111 0 187 58l-3 -42q-77 -53 -186 -53q-157 0 -234 87t-77 246q0 71 13 135t41 120.5t68.5 98.5t100.5 66t133 24z"/>
<glyph glyph-name="A" horiz-adv-x="436" unicode="A" d="M215 648l-101 -453h204zM325 155h-218l-35 -155h-42l153 701h67l156 -701h-46z"/>
<glyph glyph-name="B" horiz-adv-x="378" unicode="B" d="M86 42h104q107 0 107 121v63q0 67 -30 95t-94 28h-87v-307zM86 391h78q64 0 92 23.5t28 87.5v45q0 57 -22 84t-76 27h-100v-267zM40 700h147q77 0 110 -37t33 -112v-40q0 -60 -20.5 -93.5t-71.5 -44.5q105 -21 105 -150v-61q0 -162 -153 -162h-150v700z"/>
<glyph glyph-name="C" horiz-adv-x="374" unicode="C" d="M188 706q77 0 114 -48.5t37 -128.5v-58h-44v61q0 60 -25.5 96t-80.5 36t-80.5 -36t-25.5 -96v-364q0 -131 106 -131t106 131v83h44v-80q0 -80 -37 -128.5t-114 -48.5t-114 48.5t-37 128.5v358q0 80 37 128.5t114 48.5z"/>
<glyph glyph-name="D" horiz-adv-x="385" unicode="D" d="M86 42h107q110 0 110 130v356q0 60 -27 95t-83 35h-107v-616zM40 700h154q78 0 116.5 -46.5t38.5 -127.5v-352q0 -81 -38.5 -127.5t-116.5 -46.5h-154v700z"/>
<glyph glyph-name="E" horiz-adv-x="351" unicode="E" d="M86 376h191v-42h-191v-292h230v-42h-276v700h276v-42h-230v-282z"/>
<glyph glyph-name="F" horiz-adv-x="336" unicode="F" d="M86 359h181v-42h-181v-317h-46v700h266v-42h-220v-299z"/>
<glyph glyph-name="G" horiz-adv-x="376" unicode="G" d="M188 706q77 0 114 -48.5t37 -128.5v-52h-44v55q0 60 -25.5 96t-80.5 36t-80.5 -36t-25.5 -96v-364q0 -131 106 -131t106 131v151h-93v42h137v-190q0 -80 -37 -128.5t-114 -48.5t-114 48.5t-37 128.5v358q0 80 37 128.5t114 48.5z"/>
<glyph glyph-name="H" horiz-adv-x="391" unicode="H" d="M304 329h-218v-329h-46v700h46v-329h218v329h47v-700h-47v329z"/>
<glyph glyph-name="I" horiz-adv-x="126" unicode="I" d="M40 700h46v-700h-46v700z"/>
<glyph glyph-name="J" horiz-adv-x="253" unicode="J" d="M29 0v42h12q20 0 29 1q51 4 75 33.5t24 92.5v531h46v-528q0 -88 -36 -128.5t-104 -43.5q-4 0 -11.5 -0.5t-11.5 -0.5t-11.5 0.5t-11.5 0.5z"/>
<glyph glyph-name="K" horiz-adv-x="404" unicode="K" d="M327 0l-193 329l-48 -76v-253h-46v700h46v-370l228 370h48l-200 -326l213 -374h-48z"/>
<glyph glyph-name="L" horiz-adv-x="335" unicode="L" d="M306 0h-266v700h46v-658h220v-42z"/>
<glyph glyph-name="M" horiz-adv-x="505" unicode="M" d="M421 622l-146 -621h-46l-148 619v-620h-41v700h66l147 -619l146 619h66v-700h-44v622z"/>
<glyph glyph-name="N" horiz-adv-x="391" unicode="N" d="M82 624v-624h-42v700h60l210 -591v591h42v-700h-51z"/>
<glyph glyph-name="O" d="M83 532v-364q0 -61 26 -96.5t81 -35.5q56 0 82.5 35.5t26.5 96.5v364q0 61 -26.5 96.5t-82.5 35.5q-55 0 -81 -35.5t-26 -96.5zM37 171v358q0 80 38.5 128.5t114.5 48.5q78 0 116.5 -48t38.5 -129v-358q0 -81 -38.5 -129t-116.5 -48q-76 0 -114.5 48.5t-38.5 128.5z" unicode="O"/>
<glyph glyph-name="P" horiz-adv-x="366" unicode="P" d="M86 330h87q61 0 88.5 28.5t27.5 92.5v82q0 125 -104 125h-99v-328zM40 700h145q150 0 150 -170v-76q0 -166 -162 -166h-87v-288h-46v700z"/>
<glyph glyph-name="Q" horiz-adv-x="408" unicode="Q" d="M191 664q-55 0 -81.5 -35.5t-26.5 -96.5v-364q0 -61 26.5 -96.5t81.5 -35.5t81.5 35.5t26.5 96.5v364q0 61 -26.5 96.5t-81.5 35.5zM191 706q77 0 115.5 -48t38.5 -129v-358q0 -77 -33 -121q16 -28 55 -28h11v-41h-12q-58 0 -83 41q-38 -28 -92 -28q-77 0 -115.5 48 t-38.5 129v358q0 81 38.5 129t115.5 48z"/>
<glyph glyph-name="R" horiz-adv-x="386" unicode="R" d="M86 355h74q66 0 98 25t32 92v66q0 120 -105 120h-99v-303zM40 700h146q150 0 150 -158v-61q0 -122 -101 -145q101 -22 101 -143v-109q0 -58 17 -84h-48q-15 26 -15 84v110q0 66 -33 92.5t-98 26.5h-73v-313h-46v700z"/>
<glyph glyph-name="S" horiz-adv-x="370" unicode="S" d="M186 706q76 0 112.5 -47.5t36.5 -127.5v-15h-44v18q0 130 -104 130t-104 -129q0 -34 14 -63t36.5 -50.5t49.5 -41t53.5 -40t49 -43.5t36.5 -56t14 -72q0 -80 -37 -127.5t-114 -47.5t-114 47.5t-37 127.5v36h44v-39q0 -129 106 -129t106 129q0 34 -14 62.5t-36.5 49.5 t-49 41t-53.5 40.5t-49.5 43.5t-36.5 56t-14 73q0 81 37 127t112 47z"/>
<glyph glyph-name="T" horiz-adv-x="369" unicode="T" d="M207 0h-46v658h-143v42h331v-42h-142v-658z"/>
<glyph glyph-name="U" horiz-adv-x="376" unicode="U" d="M84 700v-531q0 -133 105 -133t105 133v531h43v-529q0 -80 -36.5 -128.5t-112.5 -48.5t-113 48.5t-37 128.5v529h46z"/>
<glyph glyph-name="V" horiz-adv-x="434" unicode="V" d="M30 700h47l142 -647l142 647h43l-152 -700h-68z"/>
<glyph glyph-name="W" horiz-adv-x="603" unicode="W" d="M306 573l-98 -573h-64l-113 700h45l105 -638l102 635h49l98 -633l101 636h41l-112 -700h-60z"/>
<glyph glyph-name="X" horiz-adv-x="440" unicode="X" d="M360 0l-142 326l-142 -326h-45l158 363l-147 337h48l132 -301l133 301h44l-147 -337l157 -363h-49z"/>
<glyph glyph-name="Y" horiz-adv-x="415" unicode="Y" d="M184 0v269l-157 431h48l134 -368l134 368h45l-158 -431v-269h-46z"/>
<glyph glyph-name="Z" horiz-adv-x="388" unicode="Z" d="M349 42v-42h-315v42l271 616h-258v42h306v-43l-271 -615h267z"/>
<glyph glyph-name="bracketleft" horiz-adv-x="232" unicode="[" d="M89 39h110v-39h-156v701h156v-39h-110v-623z"/>
<glyph glyph-name="backslash" horiz-adv-x="371" unicode="\" d="M27 700h41l276 -700h-41z"/>
<glyph glyph-name="bracketright" horiz-adv-x="232" unicode="]" d="M34 39h110v623h-110v39h156v-701h-156v39z"/>
<glyph glyph-name="asciicircum" horiz-adv-x="409" unicode="^" d="M204 657l-132 -266h-39l154 309h35l154 -309h-39z"/>
<glyph glyph-name="underscore" horiz-adv-x="513" unicode="_" d="M26 -10h455v-35h-455v35z"/>
<glyph glyph-name="grave" horiz-adv-x="197" unicode="`" d="M41 848h50l71 -95h-36z"/>
<glyph glyph-name="a" horiz-adv-x="436" unicode="a" d="M215 648l-101 -453h204zM325 155h-218l-35 -155h-42l153 701h67l156 -701h-46z"/>
<glyph glyph-name="b" horiz-adv-x="378" unicode="b" d="M86 42h104q107 0 107 121v63q0 67 -30 95t-94 28h-87v-307zM86 391h78q64 0 92 23.5t28 87.5v45q0 57 -22 84t-76 27h-100v-267zM40 700h147q77 0 110 -37t33 -112v-40q0 -60 -20.5 -93.5t-71.5 -44.5q105 -21 105 -150v-61q0 -162 -153 -162h-150v700z"/>
<glyph glyph-name="c" horiz-adv-x="374" unicode="c" d="M188 706q77 0 114 -48.5t37 -128.5v-58h-44v61q0 60 -25.5 96t-80.5 36t-80.5 -36t-25.5 -96v-364q0 -131 106 -131t106 131v83h44v-80q0 -80 -37 -128.5t-114 -48.5t-114 48.5t-37 128.5v358q0 80 37 128.5t114 48.5z"/>
<glyph glyph-name="d" horiz-adv-x="385" unicode="d" d="M86 42h107q110 0 110 130v356q0 60 -27 95t-83 35h-107v-616zM40 700h154q78 0 116.5 -46.5t38.5 -127.5v-352q0 -81 -38.5 -127.5t-116.5 -46.5h-154v700z"/>
<glyph glyph-name="e" horiz-adv-x="351" unicode="e" d="M86 376h191v-42h-191v-292h230v-42h-276v700h276v-42h-230v-282z"/>
<glyph glyph-name="f" horiz-adv-x="336" unicode="f" d="M86 359h181v-42h-181v-317h-46v700h266v-42h-220v-299z"/>
<glyph glyph-name="g" horiz-adv-x="376" unicode="g" d="M188 706q77 0 114 -48.5t37 -128.5v-52h-44v55q0 60 -25.5 96t-80.5 36t-80.5 -36t-25.5 -96v-364q0 -131 106 -131t106 131v151h-93v42h137v-190q0 -80 -37 -128.5t-114 -48.5t-114 48.5t-37 128.5v358q0 80 37 128.5t114 48.5z"/>
<glyph glyph-name="h" horiz-adv-x="391" unicode="h" d="M304 329h-218v-329h-46v700h46v-329h218v329h47v-700h-47v329z"/>
<glyph glyph-name="i" horiz-adv-x="126" unicode="i" d="M40 700h46v-700h-46v700z"/>
<glyph glyph-name="j" horiz-adv-x="253" unicode="j" d="M29 0v42h12q20 0 29 1q51 4 75 33.5t24 92.5v531h46v-528q0 -88 -36 -128.5t-104 -43.5q-4 0 -11.5 -0.5t-11.5 -0.5t-11.5 0.5t-11.5 0.5z"/>
<glyph glyph-name="k" horiz-adv-x="404" unicode="k" d="M327 0l-193 329l-48 -76v-253h-46v700h46v-370l228 370h48l-200 -326l213 -374h-48z"/>
<glyph glyph-name="l" horiz-adv-x="335" unicode="l" d="M306 0h-266v700h46v-658h220v-42z"/>
<glyph glyph-name="m" horiz-adv-x="505" unicode="m" d="M421 622l-146 -621h-46l-148 619v-620h-41v700h66l147 -619l146 619h66v-700h-44v622z"/>
<glyph glyph-name="n" horiz-adv-x="391" unicode="n" d="M82 624v-624h-42v700h60l210 -591v591h42v-700h-51z"/>
<glyph glyph-name="o" d="M83 532v-364q0 -61 26 -96.5t81 -35.5q56 0 82.5 35.5t26.5 96.5v364q0 61 -26.5 96.5t-82.5 35.5q-55 0 -81 -35.5t-26 -96.5zM37 171v358q0 80 38.5 128.5t114.5 48.5q78 0 116.5 -48t38.5 -129v-358q0 -81 -38.5 -129t-116.5 -48q-76 0 -114.5 48.5t-38.5 128.5z" unicode="o"/>
<glyph glyph-name="p" horiz-adv-x="364" unicode="p" d="M86 330h87q61 0 88.5 28.5t27.5 92.5v82q0 125 -104 125h-99v-328zM40 700h145q150 0 150 -170v-76q0 -166 -162 -166h-87v-288h-46v700z"/>
<glyph glyph-name="q" horiz-adv-x="389" unicode="q" d="M191 664q-55 0 -81.5 -35.5t-26.5 -96.5v-364q0 -61 26.5 -96.5t81.5 -35.5t81.5 35.5t26.5 96.5v364q0 61 -26.5 96.5t-81.5 35.5zM191 706q77 0 115.5 -48t38.5 -129v-358q0 -77 -33 -121q16 -28 55 -28h11v-41h-12q-58 0 -83 41q-38 -28 -92 -28q-77 0 -115.5 48 t-38.5 129v358q0 81 38.5 129t115.5 48z"/>
<glyph glyph-name="r" horiz-adv-x="386" unicode="r" d="M86 355h74q66 0 98 25t32 92v66q0 120 -105 120h-99v-303zM40 700h146q150 0 150 -158v-61q0 -122 -101 -145q101 -22 101 -143v-109q0 -58 17 -84h-48q-15 26 -15 84v110q0 66 -33 92.5t-98 26.5h-73v-313h-46v700z"/>
<glyph glyph-name="s" horiz-adv-x="370" unicode="s" d="M186 706q76 0 112.5 -47.5t36.5 -127.5v-15h-44v18q0 130 -104 130t-104 -129q0 -34 14 -63t36.5 -50.5t49.5 -41t53.5 -40t49 -43.5t36.5 -56t14 -72q0 -80 -37 -127.5t-114 -47.5t-114 47.5t-37 127.5v36h44v-39q0 -129 106 -129t106 129q0 34 -14 62.5t-36.5 49.5 t-49 41t-53.5 40.5t-49.5 43.5t-36.5 56t-14 73q0 81 37 127t112 47z"/>
<glyph glyph-name="t" horiz-adv-x="364" unicode="t" d="M204 0h-46v658h-142v42h331v-42h-143v-658z"/>
<glyph glyph-name="u" horiz-adv-x="376" unicode="u" d="M84 700v-531q0 -133 105 -133t105 133v531h43v-529q0 -80 -36.5 -128.5t-112.5 -48.5t-113 48.5t-37 128.5v529h46z"/>
<glyph glyph-name="v" horiz-adv-x="434" unicode="v" d="M30 700h47l142 -647l142 647h43l-152 -700h-68z"/>
<glyph glyph-name="w" horiz-adv-x="603" unicode="w" d="M306 573l-98 -573h-64l-113 700h45l105 -638l102 635h49l98 -633l101 636h41l-112 -700h-60z"/>
<glyph glyph-name="x" horiz-adv-x="440" unicode="x" d="M360 0l-142 326l-142 -326h-45l158 363l-147 337h48l132 -301l133 301h44l-147 -337l157 -363h-49z"/>
<glyph glyph-name="y" horiz-adv-x="415" unicode="y" d="M184 0v269l-157 431h48l134 -368l134 368h45l-158 -431v-269h-46z"/>
<glyph glyph-name="z" horiz-adv-x="388" unicode="z" d="M349 42v-42h-315v42l271 616h-258v42h306v-43l-271 -615h267z"/>
<glyph glyph-name="braceleft" horiz-adv-x="256" unicode="{" d="M225 662h-22q-34 0 -46 -20t-15 -63l-6 -126q-2 -42 -14.5 -67t-50.5 -36q38 -10 50.5 -35t14.5 -68l6 -125q3 -43 15 -63t46 -20h22v-39h-37q-81 0 -88 104l-7 137q-2 44 -13.5 63t-49.5 25v42q39 6 50 25t13 63l7 138q7 104 88 104h37v-39z"/>
<glyph glyph-name="bar" horiz-adv-x="250" unicode="|" d="M108 724h38v-747h-38v747z"/>
<glyph glyph-name="braceright" horiz-adv-x="256" unicode="}" d="M31 701h37q81 0 88 -104l7 -138q3 -45 14 -63.5t50 -24.5v-42q-39 -6 -50 -24.5t-14 -63.5l-7 -137q-3 -50 -23 -77t-65 -27h-37v39h23q33 0 45 20t15 63l7 125q1 28 5 45.5t18.5 34t41.5 23.5q-38 11 -50.5 36t-14.5 67l-7 126q-3 42 -15 62.5t-45 20.5h-23v39z"/>
<glyph glyph-name="asciitilde" horiz-adv-x="397" unicode="~" d="M124 398h3q30 0 79.5 -30.5t71.5 -30.5h2q19 1 32.5 13.5t31.5 40.5l24 -23q-41 -65 -87 -68h-3q-28 0 -78 31t-76 31h-1q-38 0 -71 -54l-24 21q43 69 96 69z"/>
<glyph glyph-name="uni00A0" horiz-adv-x="155" unicode=" "/>
<glyph glyph-name="exclamdown" horiz-adv-x="126" unicode="¡" d="M40 0v326l6 220h34l6 -220v-326h-46zM41 701h44v-88h-44v88z"/>
<glyph glyph-name="cent" horiz-adv-x="377" unicode="¢" d="M208 705v-47q132 -10 132 -170v-32h-44v34q0 127 -106 127q-105 0 -105 -131v-270q0 -60 25.5 -96t79.5 -36q106 0 106 130v55h44v-52q0 -76 -32.5 -122.5t-99.5 -51.5v-48h-39v48q-66 6 -98 53.5t-32 121.5v265q0 74 32 121.5t98 53.5v47h39z"/>
<glyph glyph-name="sterling" horiz-adv-x="386" unicode="£" d="M198 706q76 0 111.5 -49.5t35.5 -130.5v-43h-43v45q0 136 -103 136q-105 0 -105 -134q0 -53 14 -95t35 -84.5t30 -73.5h147v-37h-143q1 -8 1 -23q0 -80 -84 -175h253v-42h-311v41q101 77 101 175q0 8 -2 24h-86v37h79q-9 30 -31 72t-35.5 83.5t-13.5 95.5q0 81 36 129.5 t114 48.5z"/>
<glyph glyph-name="currency" horiz-adv-x="349" unicode="¤" d="M174 434q-35 0 -59.5 -24.5t-24.5 -59.5t24.5 -59.5t59.5 -24.5t60 24.5t25 59.5t-25 59.5t-60 24.5zM312 467l-48 -47q25 -30 25 -70t-25 -70l48 -47l-20 -20l-47 46q-29 -23 -71 -23q-39 0 -70 23l-47 -46l-20 20l47 46q-24 32 -24 71q0 40 24 70l-47 47l20 20l48 -47 q30 24 69 24t71 -24l47 47z"/>
<glyph glyph-name="yen" horiz-adv-x="431" unicode="¥" d="M347 248h-109v-73h109v-26h-109v-149h-46v149h-108v26h108v73h-108v26h104l-160 426h49l140 -374l141 374h44l-161 -426h106v-26z"/>
<glyph glyph-name="brokenbar" horiz-adv-x="251" unicode="¦" d="M108 -23v314h39v-314h-39zM108 409v314h39v-314h-39z"/>
<glyph glyph-name="section" horiz-adv-x="378" unicode="§" d="M189 430q-43 -7 -74 -36.5t-31 -71.5q0 -24 9.5 -43t31 -34t35 -22t42.5 -20q40 12 66.5 41t26.5 70q0 42 -27.5 67t-78.5 49zM191 706q65 -1 105.5 -35.5t40.5 -92.5v-19h-44v13q0 43 -29 68.5t-72 26.5q-45 0 -76 -22t-31 -66q0 -32 26 -55.5t63.5 -40t75 -35t63.5 -52 t26 -80.5q0 -89 -97 -133q46 -23 72 -52t26 -75q0 -56 -43.5 -89.5t-106.5 -33.5q-67 0 -109 34t-42 94v33h43v-28q0 -44 31 -69t76 -25q42 0 73.5 22.5t31.5 63.5q0 33 -26 57t-63.5 39.5t-75 33.5t-63.5 51t-26 80t29.5 81t76.5 50q-52 26 -79.5 54.5t-27.5 75.5 q0 59 43 92.5t109 33.5z"/>
<glyph glyph-name="dieresis" horiz-adv-x="190" unicode="¨" d="M68 745v85h54v-85h-54z"/>
<glyph glyph-name="copyright" horiz-adv-x="748" unicode="©" d="M370 569q52 0 78 -33.5t26 -89.5v-24h-32v26q0 90 -72 90t-72 -90v-196q0 -90 72 -90t72 90v37h32v-36q0 -56 -26 -89.5t-78 -33.5q-54 0 -80 33.5t-26 89.5v193q0 56 26 89.5t80 33.5zM374 669q-134 0 -221.5 -91t-87.5 -228t87.5 -228t221.5 -91t221 91t87 228t-87 228 t-221 91zM374 700q147 0 244 -100t97 -250t-97 -250t-244 -100q-148 0 -244.5 99.5t-96.5 250.5t96.5 250.5t244.5 99.5z"/>
<glyph glyph-name="ordfeminine" horiz-adv-x="273" unicode="ª" d="M38 268h196v-31h-196v31zM203 443v78q-135 -2 -135 -87v-5q0 -69 62 -69q32 0 50.5 23.5t22.5 59.5zM146 705q88 0 88 -109v-260h-27l-2 62q-22 -67 -85 -67q-41 0 -62.5 25t-21.5 71v3q0 114 167 116v54q0 76 -58 76q-64 0 -64 -79v-12h-30v11q0 109 95 109z"/>
<glyph glyph-name="guillemotleft" horiz-adv-x="285" unicode="«" d="M212 101l-65 250l65 245h42l-65 -245l65 -250h-42zM97 101l-66 250l66 245h42l-65 -245l65 -250h-42z"/>
<glyph glyph-name="logicalnot" horiz-adv-x="380" unicode="¬" d="M311 333h-276v34h310v-168h-34v134z"/>
<glyph glyph-name="uni00AD" horiz-adv-x="260" unicode="­" d="M38 329v42h184v-42h-184z"/>
<glyph glyph-name="registered" horiz-adv-x="748" unicode="®" d="M309 354h57q43 0 63 18t20 62v15q0 83 -73 83h-67v-178zM275 564h103q105 0 105 -111v-13q0 -82 -64 -101q64 -19 64 -99v-46q0 -42 12 -58h-35q-11 20 -11 59v46q0 46 -23.5 63.5t-68.5 17.5h-48v-186h-34v428zM374 669q-134 0 -221.5 -91t-87.5 -228t87.5 -228 t221.5 -91t221 91t87 228t-87 228t-221 91zM374 700q147 0 244 -100t97 -250t-97 -250t-244 -100q-148 0 -244.5 99.5t-96.5 250.5t96.5 250.5t244.5 99.5z"/>
<glyph glyph-name="macron" horiz-adv-x="253" unicode="¯" d="M29 781h194v-34h-194v34z"/>
<glyph glyph-name="degree" horiz-adv-x="210" unicode="°" d="M105 684q-21 0 -35.5 -14t-14.5 -35t14.5 -35t35.5 -14t35.5 14t14.5 35t-14.5 35t-35.5 14zM105 708q31 0 52.5 -21t21.5 -52t-21.5 -52t-52.5 -21t-52.5 21t-21.5 52t21.5 52t52.5 21z"/>
<glyph glyph-name="plusminus" horiz-adv-x="388" unicode="±" d="M38 222h139v118h-139v35h139v136h34v-136h139v-35h-139v-118h139v-35h-312v35z"/>
<glyph glyph-name="twosuperior" horiz-adv-x="271" unicode="²" d="M138 800q50 0 73.5 -31t23.5 -83q0 -35 -16.5 -67.5t-40 -57.5t-47.5 -50.5t-41 -58t-18 -68.5v-4h158v-29h-189v23q0 43 16.5 79.5t40.5 63t48 50.5t40.5 54.5t16.5 63.5q0 86 -66 86t-66 -85v-30h-30v29q0 52 23.5 83.5t73.5 31.5z"/>
<glyph glyph-name="threesuperior" horiz-adv-x="271" unicode="³" d="M136 800q49 0 72.5 -30.5t23.5 -82.5v-11q0 -71 -56 -92q56 -20 56 -90v-35q0 -52 -23.5 -82.5t-72.5 -30.5t-73 30.5t-24 82.5v25h30v-27q0 -82 66 -82t66 85v34q0 34 -17 53.5t-48 19.5h-30v29h31q29 0 47 21.5t17 52.5v16q0 85 -66 85t-66 -82v-18h-30v16 q0 52 24 82.5t73 30.5z"/>
<glyph glyph-name="acute" horiz-adv-x="197" unicode="´" d="M107 848h47l-84 -95h-35z"/>
<glyph glyph-name="uni00B5" horiz-adv-x="399" unicode="µ" d="M307 0v91q-13 -44 -43 -69.5t-73 -25.5q-77 0 -98 76l1 -164h-46v592h46v-329q0 -132 104 -132q54 0 79.5 35.5t25.5 96.5v329h46v-500h-42z"/>
<glyph glyph-name="paragraph" horiz-adv-x="396" unicode="¶" d="M310 665h-125v-727h-35v351q-67 3 -96.5 44.5t-29.5 121.5v79q0 81 31 123t108 43h182v-762h-35v727z"/>
<glyph glyph-name="periodcentered" horiz-adv-x="125" unicode="·" d="M40 404h45v-88h-45v88z"/>
<glyph glyph-name="cedilla" horiz-adv-x="247" unicode="¸" d="M137 5v-44q75 -2 75 -51q0 -31 -24.5 -45.5t-60.5 -14.5h-4q-37 0 -62.5 14.5t-25.5 44.5v6h33v-5q0 -20 16.5 -29.5t38.5 -10.5q22 0 38.5 10t16.5 31q0 38 -57 38h-7v56h23z"/>
<glyph glyph-name="onesuperior" horiz-adv-x="178" unicode="¹" d="M35 710v25q53 3 74 60h25v-444h-32v393q-26 -30 -67 -34z"/>
<glyph glyph-name="ordmasculine" horiz-adv-x="274" unicode="º" d="M39 269h197v-31h-197v31zM137 676q-68 0 -68 -82v-155q0 -82 68 -82q67 0 67 82v155q0 82 -67 82zM137 705q50 0 74.5 -31t24.5 -82v-151q0 -51 -24.5 -82t-74.5 -31t-74.5 31t-24.5 82v151q0 51 24.5 82t74.5 31z"/>
<glyph glyph-name="guillemotright" horiz-adv-x="285" unicode="»" d="M147 101l64 250l-64 245h42l65 -245l-65 -250h-42zM31 101l65 250l-65 245h42l66 -245l-66 -250h-42z"/>
<glyph glyph-name="onequarter" horiz-adv-x="528" unicode="¼" d="M306 125h122v259zM459 96v-96h-31v96h-152v29l147 319h36v-319h36v-29h-36zM418 700l-276 -700h-29l276 700h29zM116 256v393q-26 -30 -66 -34l-1 25q55 3 74 60h25v-444h-32z"/>
<glyph glyph-name="onehalf" horiz-adv-x="573" unicode="½" d="M439 449q97 0 97 -114q0 -35 -16.5 -67t-40 -57t-47 -50.5t-40.5 -58t-18 -68.5v-5h157v-29h-189v23q0 43 17 79.5t41 63t47.5 50.5t40.5 54.5t17 63.5q0 86 -66 86q-67 0 -67 -85v-30h-30v29q0 52 24 83.5t73 31.5zM378 700h30l-276 -700h-30zM116 256v393 q-26 -30 -66 -34l-1 25q55 3 74 60h25v-444h-32z"/>
<glyph glyph-name="threequarters" horiz-adv-x="578" unicode="¾" d="M477 384l-121 -259h121v259zM477 0v96h-151v29l147 319h36v-319h36v-29h-36v-96h-32zM166 0l276 700h30l-276 -700h-30zM136 705q49 0 72.5 -30.5t23.5 -82.5v-11q0 -71 -56 -92q56 -20 56 -90v-35q0 -52 -23.5 -82.5t-72.5 -30.5t-73 30.5t-24 82.5v25h30v-27 q0 -82 66 -82t66 85v34q0 34 -17 53.5t-48 19.5h-30v29h31q29 0 47 21.5t17 52.5v16q0 85 -66 85t-66 -82v-18h-30v16q0 52 24 82.5t73 30.5z"/>
<glyph glyph-name="questiondown" horiz-adv-x="363" unicode="¿" d="M173 544h41q6 -18 6 -39q0 -42 -15 -78t-36 -63l-42 -54t-35.5 -63t-14.5 -77q0 -134 105 -134q104 0 104 135v49h44v-46q0 -81 -36.5 -130.5t-112.5 -49.5q-78 0 -114 48.5t-36 129.5q0 52 23 98.5t50 75t50 71.5t23 90q0 21 -4 37zM172 700h45v-87h-45v87z"/>
<glyph glyph-name="Agrave" horiz-adv-x="436" unicode="À" d="M215 648l-101 -453h204zM325 155h-218l-35 -155h-42l153 701h67l156 -701h-46zM135 832h50l71 -95h-36z"/>
<glyph glyph-name="Aacute" horiz-adv-x="436" unicode="Á" d="M215 648l-101 -453h204zM325 155h-218l-35 -155h-42l153 701h67l156 -701h-46zM242 833h48l-84 -95h-35z"/>
<glyph glyph-name="Acircumflex" horiz-adv-x="436" unicode="Â" d="M215 648l-101 -453h204zM325 155h-218l-35 -155h-42l153 701h67l156 -701h-46zM216 800l-61 -63h-43l84 90h40l85 -90h-44z"/>
<glyph glyph-name="Atilde" horiz-adv-x="436" unicode="Ã" d="M215 648l-101 -453h204zM325 155h-218l-35 -155h-42l153 701h67l156 -701h-46zM170 814q20 0 49 -17t43 -17h1q22 1 37 31l25 -17q-21 -47 -58 -47h-3q-18 0 -46.5 16.5t-42.5 16.5h-1q-26 0 -42 -30l-25 16q21 46 63 48z"/>
<glyph glyph-name="Adieresis" horiz-adv-x="436" unicode="Ä" d="M215 648l-101 -453h204zM325 155h-218l-35 -155h-42l153 701h67l156 -701h-46zM244 821h41v-84h-41v84zM147 821h41v-84h-41v84z"/>
<glyph glyph-name="Aring" horiz-adv-x="436" unicode="Å" d="M215 648l-101 -453h204zM325 155h-218l-35 -155h-42l153 701h67l156 -701h-46zM216 847q-18 0 -30.5 -11.5t-12.5 -29.5t12.5 -30t30.5 -12t30.5 12t12.5 30t-12.5 29.5t-30.5 11.5zM216 872q28 0 47.5 -19t19.5 -47t-19.5 -47.5t-47.5 -19.5t-47.5 19.5t-19.5 47.5 t19.5 47t47.5 19z"/>
<glyph glyph-name="AE" horiz-adv-x="589" unicode="Æ" d="M303 643l-163 -445h163v445zM349 376h169v-42h-169v-292h204v-42h-250v157h-175l-57 -157h-44l249 700h277v-42h-204v-282z"/>
<glyph glyph-name="Ccedilla" horiz-adv-x="374" unicode="Ç" d="M188 706q77 0 114 -48.5t37 -128.5v-58h-44v61q0 60 -25.5 96t-80.5 36t-80.5 -36t-25.5 -96v-364q0 -131 106 -131t106 131v83h44v-80q0 -77 -34.5 -125t-105.5 -52v-28q35 -1 55 -15.5t20 -40.5q0 -30 -23 -47t-63 -17h-3q-41 0 -64.5 16.5t-23.5 46.5v6h32v-5 q0 -17 15 -27.5t41 -11.5q57 0 57 40q0 37 -60 37h-7v47q-70 4 -104 51.5t-34 124.5v358q0 80 37 128.5t114 48.5z"/>
<glyph glyph-name="Egrave" horiz-adv-x="351" unicode="È" d="M86 376h191v-42h-191v-292h230v-42h-276v700h276v-42h-230v-282zM103 842h50l71 -95h-37z"/>
<glyph glyph-name="Eacute" horiz-adv-x="351" unicode="É" d="M86 376h191v-42h-191v-292h230v-42h-276v700h276v-42h-230v-282zM212 835h48l-84 -95h-35z"/>
<glyph glyph-name="Ecircumflex" horiz-adv-x="351" unicode="Ê" d="M86 376h191v-42h-191v-292h230v-42h-276v700h276v-42h-230v-282zM177 805l-61 -64h-43l84 90h40l85 -90h-44z"/>
<glyph glyph-name="Edieresis" horiz-adv-x="351" unicode="Ë" d="M86 376h191v-42h-191v-292h230v-42h-276v700h276v-42h-230v-282zM205 825h41v-85h-41v85zM109 825h40v-85h-40v85z"/>
<glyph glyph-name="Igrave" horiz-adv-x="126" unicode="Ì" d="M40 0v700h46v-700h-46zM60 740l-84 95h49l71 -95h-36z"/>
<glyph glyph-name="Iacute" horiz-adv-x="126" unicode="Í" d="M40 0v700h46v-700h-46zM25 741l71 95h48l-84 -95h-35z"/>
<glyph glyph-name="Icircumflex" horiz-adv-x="126" unicode="Î" d="M40 0v700h46v-700h-46zM43 830h40l84 -90h-43l-61 64l-61 -64h-43z"/>
<glyph glyph-name="Idieresis" horiz-adv-x="126" unicode="Ï" d="M40 700h46v-700h-46v700zM91 825h41v-84h-41v84zM-6 825h41v-84h-41v84z"/>
<glyph glyph-name="Eth" horiz-adv-x="385" unicode="Ð" d="M175 369v-38h-89v-289h107q110 0 110 130v356q0 60 -27 95t-83 35h-107v-289h89zM40 700h154q78 0 116.5 -46.5t38.5 -127.5v-352q0 -81 -38.5 -127.5t-116.5 -46.5h-154v331h-46v38h46v331z"/>
<glyph glyph-name="Ntilde" horiz-adv-x="391" unicode="Ñ" d="M82 624v-624h-42v700h60l210 -591v591h42v-700h-51zM281 819l24 -17q-19 -45 -58 -47h-2q-19 0 -47 16.5t-43 16.5h-1q-25 0 -42 -30l-24 16q19 46 62 48h2q19 0 47 -16.5t42 -16.5h2q22 0 38 30z"/>
<glyph glyph-name="Ograve" d="M190 664q-55 0 -81 -35.5t-26 -96.5v-364q0 -61 26 -96.5t81 -35.5q56 0 82.5 35.5t26.5 96.5v364q0 61 -26.5 96.5t-82.5 35.5zM190 706q78 0 116.5 -48t38.5 -129v-358q0 -81 -38.5 -129t-116.5 -48q-76 0 -114.5 48.5t-38.5 128.5v358q0 80 38.5 128.5t114.5 48.5z M108 842h50l71 -95h-37z" unicode="Ò"/>
<glyph glyph-name="Oacute" d="M190 664q-55 0 -81 -35.5t-26 -96.5v-364q0 -61 26 -96.5t81 -35.5q56 0 82.5 35.5t26.5 96.5v364q0 61 -26.5 96.5t-82.5 35.5zM190 706q78 0 116.5 -48t38.5 -129v-358q0 -81 -38.5 -129t-116.5 -48q-76 0 -114.5 48.5t-38.5 128.5v358q0 80 38.5 128.5t114.5 48.5z M223 842h48l-84 -95h-35z" unicode="Ó"/>
<glyph glyph-name="Ocircumflex" d="M190 664q-55 0 -81 -35.5t-26 -96.5v-364q0 -61 26 -96.5t81 -35.5q56 0 82.5 35.5t26.5 96.5v364q0 61 -26.5 96.5t-82.5 35.5zM190 706q78 0 116.5 -48t38.5 -129v-358q0 -81 -38.5 -129t-116.5 -48q-76 0 -114.5 48.5t-38.5 128.5v358q0 80 38.5 128.5t114.5 48.5z M190 809l-61 -64h-43l84 90h40l84 -90h-43z" unicode="Ô"/>
<glyph glyph-name="Otilde" d="M190 664q-55 0 -81 -35.5t-26 -96.5v-364q0 -61 26 -96.5t81 -35.5q56 0 82.5 35.5t26.5 96.5v364q0 61 -26.5 96.5t-82.5 35.5zM190 706q78 0 116.5 -48t38.5 -129v-358q0 -81 -38.5 -129t-116.5 -48q-76 0 -114.5 48.5t-38.5 128.5v358q0 80 38.5 128.5t114.5 48.5z M278 816l25 -16q-19 -47 -58 -48h-2q-19 0 -47 17t-44 17q-26 0 -42 -31l-25 17q22 47 63 47h2q20 0 48 -16.5t42 -16.5h1q24 1 37 30z" unicode="Õ"/>
<glyph glyph-name="Odieresis" d="M190 664q-55 0 -81 -35.5t-26 -96.5v-364q0 -61 26 -96.5t81 -35.5q56 0 82.5 35.5t26.5 96.5v364q0 61 -26.5 96.5t-82.5 35.5zM190 706q78 0 116.5 -48t38.5 -129v-358q0 -81 -38.5 -129t-116.5 -48q-76 0 -114.5 48.5t-38.5 128.5v358q0 80 38.5 128.5t114.5 48.5z M218 830h41v-85h-41v85zM121 830h41v-85h-41v85z" unicode="Ö"/>
<glyph glyph-name="multiply" horiz-adv-x="337" unicode="×" d="M297 244l-23 -24l-105 106l-106 -106l-24 24l106 105l-105 105l23 24l106 -105l105 105l23 -23l-105 -106z"/>
<glyph glyph-name="Oslash" d="M299 168v364q0 28 -6 54l-192 -503q28 -47 89 -47q56 0 82.5 35.5t26.5 96.5zM83 532v-364q0 -24 5 -51l192 501q-28 46 -90 46q-55 0 -81 -35.5t-26 -96.5zM339 707l-23 -62q29 -43 29 -116v-358q0 -81 -38.5 -129t-116.5 -48q-69 0 -107 40l-20 -51l-23 8l25 66 q-28 44 -28 114v358q0 80 38.5 128.5t114.5 48.5q68 0 108 -40l19 49z" unicode="Ø"/>
<glyph glyph-name="Ugrave" horiz-adv-x="376" unicode="Ù" d="M337 700v-529q0 -80 -36.5 -128.5t-112.5 -48.5t-113 48.5t-37 128.5v529h46v-531q0 -133 105 -133t105 133v531h43zM105 836h50l71 -95h-37z"/>
<glyph glyph-name="Uacute" horiz-adv-x="376" unicode="Ú" d="M337 700v-529q0 -80 -36.5 -128.5t-112.5 -48.5t-113 48.5t-37 128.5v529h46v-531q0 -133 105 -133t105 133v531h43zM227 842h48l-84 -95h-35z"/>
<glyph glyph-name="Ucircumflex" horiz-adv-x="376" unicode="Û" d="M337 700v-529q0 -80 -36.5 -128.5t-112.5 -48.5t-113 48.5t-37 128.5v529h46v-531q0 -133 105 -133t105 133v531h43zM189 809l-61 -64h-43l84 90h40l85 -90h-44z"/>
<glyph glyph-name="Udieresis" horiz-adv-x="376" unicode="Ü" d="M337 700v-529q0 -80 -36.5 -128.5t-112.5 -48.5t-113 48.5t-37 128.5v529h46v-531q0 -133 105 -133t105 133v531h43zM216 828h41v-85h-41v85zM119 828h41v-85h-41v85z"/>
<glyph glyph-name="Yacute" horiz-adv-x="415" unicode="Ý" d="M184 0v269l-157 431h48l134 -368l134 368h45l-158 -431v-269h-46zM247 835h47l-84 -95h-35z"/>
<glyph glyph-name="Thorn" horiz-adv-x="377" unicode="Þ" d="M86 208h87q61 0 88.5 28.5t27.5 92.5v81q0 61 -24 93t-80 32h-99v-327zM86 578h99q150 0 150 -170v-76q0 -166 -162 -166h-87v-166h-46v700h46v-122z"/>
<glyph glyph-name="germandbls" horiz-adv-x="712" unicode="ß" d="M530 706q76 0 112.5 -47.5t36.5 -127.5v-15h-44v18q0 130 -104 130t-104 -129q0 -34 14 -63t36.5 -50.5t49 -41t53.5 -40t49.5 -43.5t36.5 -56t14 -72q0 -80 -37 -127.5t-114 -47.5t-114 47.5t-37 127.5v36h44v-39q0 -129 106 -129t106 129q0 34 -14 62.5t-36.5 49.5 t-49.5 41t-53.5 40.5t-49 43.5t-36.5 56t-14 73q0 81 37 127t112 47zM183 706q76 0 112.5 -47.5t36.5 -127.5v-15h-44v18q0 130 -104 130t-104 -129q0 -34 14 -63t36.5 -50.5t49 -41t53.5 -40t49.5 -43.5t36.5 -56t14 -72q0 -80 -37 -127.5t-114 -47.5t-114 47.5t-37 127.5 v36h44v-39q0 -129 106 -129t106 129q0 34 -14 62.5t-36.5 49.5t-49.5 41t-53.5 40.5t-49 43.5t-36.5 56t-14 73q0 81 37 127t112 47z"/>
<glyph glyph-name="agrave" horiz-adv-x="436" unicode="à" d="M215 648l-101 -453h204zM325 155h-218l-35 -155h-42l153 701h67l156 -701h-46zM135 832h50l71 -95h-36z"/>
<glyph glyph-name="aacute" horiz-adv-x="436" unicode="á" d="M215 648l-101 -453h204zM325 155h-218l-35 -155h-42l153 701h67l156 -701h-46zM242 833h48l-84 -95h-35z"/>
<glyph glyph-name="acircumflex" horiz-adv-x="436" unicode="â" d="M215 648l-101 -453h204zM325 155h-218l-35 -155h-42l153 701h67l156 -701h-46zM216 800l-61 -63h-43l84 90h40l85 -90h-44z"/>
<glyph glyph-name="atilde" horiz-adv-x="436" unicode="ã" d="M215 648l-101 -453h204zM325 155h-218l-35 -155h-42l153 701h67l156 -701h-46zM170 814q20 0 49 -17t43 -17h1q22 1 37 31l25 -17q-21 -47 -58 -47h-3q-18 0 -46.5 16.5t-42.5 16.5h-1q-26 0 -42 -30l-25 16q21 46 63 48z"/>
<glyph glyph-name="adieresis" horiz-adv-x="436" unicode="ä" d="M215 648l-101 -453h204zM325 155h-218l-35 -155h-42l153 701h67l156 -701h-46zM244 821h41v-84h-41v84zM147 821h41v-84h-41v84z"/>
<glyph glyph-name="aring" horiz-adv-x="436" unicode="å" d="M215 648l-101 -453h204zM325 155h-218l-35 -155h-42l153 701h67l156 -701h-46zM216 847q-18 0 -30.5 -11.5t-12.5 -29.5t12.5 -30t30.5 -12t30.5 12t12.5 30t-12.5 29.5t-30.5 11.5zM216 872q28 0 47.5 -19t19.5 -47t-19.5 -47.5t-47.5 -19.5t-47.5 19.5t-19.5 47.5 t19.5 47t47.5 19z"/>
<glyph glyph-name="ae" horiz-adv-x="589" unicode="æ" d="M303 643l-163 -445h163v445zM349 376h169v-42h-169v-292h204v-42h-250v157h-175l-57 -157h-44l249 700h277v-42h-204v-282z"/>
<glyph glyph-name="ccedilla" horiz-adv-x="374" unicode="ç" d="M188 706q77 0 114 -48.5t37 -128.5v-58h-44v61q0 60 -25.5 96t-80.5 36t-80.5 -36t-25.5 -96v-364q0 -131 106 -131t106 131v83h44v-80q0 -77 -34.5 -125t-105.5 -52v-28q35 -1 55 -15.5t20 -40.5q0 -30 -23 -47t-63 -17h-3q-41 0 -64.5 16.5t-23.5 46.5v6h32v-5 q0 -17 15 -27.5t41 -11.5q57 0 57 40q0 37 -60 37h-7v47q-70 4 -104 51.5t-34 124.5v358q0 80 37 128.5t114 48.5z"/>
<glyph glyph-name="egrave" horiz-adv-x="351" unicode="è" d="M86 376h191v-42h-191v-292h230v-42h-276v700h276v-42h-230v-282zM103 842h50l71 -95h-37z"/>
<glyph glyph-name="eacute" horiz-adv-x="351" unicode="é" d="M86 376h191v-42h-191v-292h230v-42h-276v700h276v-42h-230v-282zM212 835h48l-84 -95h-35z"/>
<glyph glyph-name="ecircumflex" horiz-adv-x="351" unicode="ê" d="M86 376h191v-42h-191v-292h230v-42h-276v700h276v-42h-230v-282zM177 805l-61 -64h-43l84 90h40l85 -90h-44z"/>
<glyph glyph-name="edieresis" horiz-adv-x="351" unicode="ë" d="M86 376h191v-42h-191v-292h230v-42h-276v700h276v-42h-230v-282zM205 825h41v-85h-41v85zM109 825h40v-85h-40v85z"/>
<glyph glyph-name="igrave" horiz-adv-x="126" unicode="ì" d="M40 0v700h46v-700h-46zM60 740l-84 95h49l71 -95h-36z"/>
<glyph glyph-name="iacute" horiz-adv-x="126" unicode="í" d="M40 0v700h46v-700h-46zM25 741l71 95h48l-84 -95h-35z"/>
<glyph glyph-name="icircumflex" horiz-adv-x="126" unicode="î" d="M40 0v700h46v-700h-46zM43 830h40l84 -90h-43l-61 64l-61 -64h-43z"/>
<glyph glyph-name="idieresis" horiz-adv-x="126" unicode="ï" d="M40 700h46v-700h-46v700zM91 825h41v-84h-41v84zM-6 825h41v-84h-41v84z"/>
<glyph glyph-name="eth" horiz-adv-x="385" unicode="ð" d="M176 368v-38h-90v-288h107q110 0 110 130v356q0 60 -27 95t-83 35h-107v-290h90zM40 700h154q78 0 116.5 -46.5t38.5 -127.5v-352q0 -81 -38.5 -127.5t-116.5 -46.5h-154v330h-42v38h42v332z"/>
<glyph glyph-name="ntilde" horiz-adv-x="391" unicode="ñ" d="M82 624v-624h-42v700h60l210 -591v591h42v-700h-51zM281 819l24 -17q-19 -45 -58 -47h-2q-19 0 -47 16.5t-43 16.5h-1q-25 0 -42 -30l-24 16q19 46 62 48h2q19 0 47 -16.5t42 -16.5h2q22 0 38 30z"/>
<glyph glyph-name="ograve" d="M190 664q-55 0 -81 -35.5t-26 -96.5v-364q0 -61 26 -96.5t81 -35.5q56 0 82.5 35.5t26.5 96.5v364q0 61 -26.5 96.5t-82.5 35.5zM190 706q78 0 116.5 -48t38.5 -129v-358q0 -81 -38.5 -129t-116.5 -48q-76 0 -114.5 48.5t-38.5 128.5v358q0 80 38.5 128.5t114.5 48.5z M108 842h50l71 -95h-37z" unicode="ò"/>
<glyph glyph-name="oacute" d="M190 664q-55 0 -81 -35.5t-26 -96.5v-364q0 -61 26 -96.5t81 -35.5q56 0 82.5 35.5t26.5 96.5v364q0 61 -26.5 96.5t-82.5 35.5zM190 706q78 0 116.5 -48t38.5 -129v-358q0 -81 -38.5 -129t-116.5 -48q-76 0 -114.5 48.5t-38.5 128.5v358q0 80 38.5 128.5t114.5 48.5z M223 842h48l-84 -95h-35z" unicode="ó"/>
<glyph glyph-name="ocircumflex" d="M190 664q-55 0 -81 -35.5t-26 -96.5v-364q0 -61 26 -96.5t81 -35.5q56 0 82.5 35.5t26.5 96.5v364q0 61 -26.5 96.5t-82.5 35.5zM190 706q78 0 116.5 -48t38.5 -129v-358q0 -81 -38.5 -129t-116.5 -48q-76 0 -114.5 48.5t-38.5 128.5v358q0 80 38.5 128.5t114.5 48.5z M190 809l-61 -64h-43l84 90h40l84 -90h-43z" unicode="ô"/>
<glyph glyph-name="otilde" d="M190 664q-55 0 -81 -35.5t-26 -96.5v-364q0 -61 26 -96.5t81 -35.5q56 0 82.5 35.5t26.5 96.5v364q0 61 -26.5 96.5t-82.5 35.5zM190 706q78 0 116.5 -48t38.5 -129v-358q0 -81 -38.5 -129t-116.5 -48q-76 0 -114.5 48.5t-38.5 128.5v358q0 80 38.5 128.5t114.5 48.5z M278 816l25 -16q-19 -47 -58 -48h-2q-19 0 -47 17t-44 17q-26 0 -42 -31l-25 17q22 47 63 47h2q20 0 48 -16.5t42 -16.5h1q24 1 37 30z" unicode="õ"/>
<glyph glyph-name="odieresis" d="M190 664q-55 0 -81 -35.5t-26 -96.5v-364q0 -61 26 -96.5t81 -35.5q56 0 82.5 35.5t26.5 96.5v364q0 61 -26.5 96.5t-82.5 35.5zM190 706q78 0 116.5 -48t38.5 -129v-358q0 -81 -38.5 -129t-116.5 -48q-76 0 -114.5 48.5t-38.5 128.5v358q0 80 38.5 128.5t114.5 48.5z M218 830h41v-85h-41v85zM121 830h41v-85h-41v85z" unicode="ö"/>
<glyph glyph-name="divide" horiz-adv-x="305" unicode="÷" d="M130 289h44v-88h-44v88zM35 367h236v-34h-236v34zM130 499h44v-88h-44v88z"/>
<glyph glyph-name="oslash" d="M299 168v364q0 28 -6 54l-192 -503q28 -47 89 -47q56 0 82.5 35.5t26.5 96.5zM83 532v-364q0 -24 5 -51l192 501q-28 46 -90 46q-55 0 -81 -35.5t-26 -96.5zM339 707l-23 -62q29 -43 29 -116v-358q0 -81 -38.5 -129t-116.5 -48q-69 0 -107 40l-20 -51l-23 8l25 66 q-28 44 -28 114v358q0 80 38.5 128.5t114.5 48.5q68 0 108 -40l19 49z" unicode="ø"/>
<glyph glyph-name="ugrave" horiz-adv-x="376" unicode="ù" d="M337 700v-529q0 -80 -36.5 -128.5t-112.5 -48.5t-113 48.5t-37 128.5v529h46v-531q0 -133 105 -133t105 133v531h43zM105 836h50l71 -95h-37z"/>
<glyph glyph-name="uacute" horiz-adv-x="376" unicode="ú" d="M337 700v-529q0 -80 -36.5 -128.5t-112.5 -48.5t-113 48.5t-37 128.5v529h46v-531q0 -133 105 -133t105 133v531h43zM227 842h48l-84 -95h-35z"/>
<glyph glyph-name="ucircumflex" horiz-adv-x="376" unicode="û" d="M337 700v-529q0 -80 -36.5 -128.5t-112.5 -48.5t-113 48.5t-37 128.5v529h46v-531q0 -133 105 -133t105 133v531h43zM189 809l-61 -64h-43l84 90h40l85 -90h-44z"/>
<glyph glyph-name="udieresis" horiz-adv-x="376" unicode="ü" d="M337 700v-529q0 -80 -36.5 -128.5t-112.5 -48.5t-113 48.5t-37 128.5v529h46v-531q0 -133 105 -133t105 133v531h43zM216 828h41v-85h-41v85zM119 828h41v-85h-41v85z"/>
<glyph glyph-name="yacute" horiz-adv-x="415" unicode="ý" d="M184 0v269l-157 431h48l134 -368l134 368h45l-158 -431v-269h-46zM247 835h47l-84 -95h-35z"/>
<glyph glyph-name="thorn" horiz-adv-x="377" unicode="þ" d="M86 208h87q61 0 88.5 28.5t27.5 92.5v81q0 61 -24 93t-80 32h-99v-327zM86 578h99q150 0 150 -170v-76q0 -166 -162 -166h-87v-166h-46v700h46v-122z"/>
<glyph glyph-name="OE" horiz-adv-x="568" unicode="Œ" d="M281 658h-98q-52 0 -76.5 -36t-24.5 -94v-356q0 -58 24.5 -94t76.5 -36h98v616zM327 376h170v-42h-170v-292h205v-42h-350q-75 0 -110.5 48t-35.5 126v352q0 78 35.5 126t110.5 48h350v-42h-205v-282z"/>
<glyph glyph-name="oe" horiz-adv-x="568" unicode="œ" d="M281 658h-98q-52 0 -76.5 -36t-24.5 -94v-356q0 -58 24.5 -94t76.5 -36h98v616zM327 376h170v-42h-170v-292h205v-42h-350q-75 0 -110.5 48t-35.5 126v352q0 78 35.5 126t110.5 48h350v-42h-205v-282z"/>
<glyph glyph-name="Scaron" horiz-adv-x="370" unicode="Š" d="M186 706q76 0 112.5 -47.5t36.5 -127.5v-15h-44v18q0 130 -104 130t-104 -129q0 -34 14 -63t36.5 -50.5t49.5 -41t53.5 -40t49 -43.5t36.5 -56t14 -72q0 -80 -37 -127.5t-114 -47.5t-114 47.5t-37 127.5v36h44v-39q0 -129 106 -129t106 129q0 34 -14 62.5t-36.5 49.5 t-49 41t-53.5 40.5t-49.5 43.5t-36.5 56t-14 73q0 81 37 127t112 47zM84 836h42l62 -64l61 64h43l-84 -90h-41z"/>
<glyph glyph-name="scaron" horiz-adv-x="370" unicode="š" d="M186 706q76 0 112.5 -47.5t36.5 -127.5v-15h-44v18q0 130 -104 130t-104 -129q0 -34 14 -63t36.5 -50.5t49.5 -41t53.5 -40t49 -43.5t36.5 -56t14 -72q0 -80 -37 -127.5t-114 -47.5t-114 47.5t-37 127.5v36h44v-39q0 -129 106 -129t106 129q0 34 -14 62.5t-36.5 49.5 t-49 41t-53.5 40.5t-49.5 43.5t-36.5 56t-14 73q0 81 37 127t112 47zM83 836h43l61 -64l61 64h44l-85 -90h-40z"/>
<glyph glyph-name="Ydieresis" horiz-adv-x="415" unicode="Ÿ" d="M184 0v269l-157 431h48l134 -368l134 368h45l-158 -431v-269h-46zM236 825h41v-84h-41v84zM139 825h41v-84h-41v84z"/>
<glyph glyph-name="circumflex" horiz-adv-x="250" unicode="ˆ" d="M125 821l-61 -63h-43l84 90h40l84 -90h-43z"/>
<glyph glyph-name="tilde" horiz-adv-x="262" unicode="˜" d="M215 815l25 -16q-20 -47 -58 -48h-2q-19 0 -47.5 16.5t-42.5 16.5h-1q-26 0 -42 -30l-25 17q22 47 63 47h2q20 0 48.5 -16.5t41.5 -16.5h1q21 0 37 30z"/>
<glyph glyph-name="uni0401" horiz-adv-x="351" unicode="Ё" d="M86 376h191v-42h-191v-292h230v-42h-276v700h276v-42h-230v-282zM206 830h41v-85h-41v85zM109 830h41v-85h-41v85z"/>
<glyph glyph-name="uni0410" horiz-adv-x="436" unicode="А" d="M215 648l-101 -453h204zM325 155h-218l-35 -155h-42l153 701h67l156 -701h-46z"/>
<glyph glyph-name="uni0411" horiz-adv-x="387" unicode="Б" d="M86 42h108q109 0 109 122v85q0 62 -28 86t-89 24h-100v-317zM86 402h100q83 0 123 -37t40 -119v-79q0 -167 -155 -167h-154v700h283v-42h-237v-256z"/>
<glyph glyph-name="uni0412" horiz-adv-x="378" unicode="В" d="M86 42h104q107 0 107 121v63q0 67 -30 95t-94 28h-87v-307zM86 391h78q64 0 92 23.5t28 87.5v45q0 57 -22 84t-76 27h-100v-267zM40 700h147q77 0 110 -37t33 -112v-40q0 -60 -20.5 -93.5t-71.5 -44.5q105 -21 105 -150v-61q0 -162 -153 -162h-150v700z"/>
<glyph glyph-name="uni0413" horiz-adv-x="346" unicode="Г" d="M309 658h-223v-658h-46v700h269v-42z"/>
<glyph glyph-name="uni0414" horiz-adv-x="489" unicode="Д" d="M185 658l-26 -504q-5 -82 -33 -112h225v616h-166zM456 -97h-46v97h-334v-97h-45v139h48q31 33 35 112l28 546h256v-658h58v-139z"/>
<glyph glyph-name="uni0415" horiz-adv-x="351" unicode="Е" d="M86 376h191v-42h-191v-292h230v-42h-276v700h276v-42h-230v-282z"/>
<glyph glyph-name="uni0416" horiz-adv-x="623" unicode="Ж" d="M547 0l-166 350l-47 -80v-270h-46v271l-46 79l-166 -350h-48l183 393l-175 307h47l205 -360v360h46v-360l205 360h48l-174 -306l181 -394h-47z"/>
<glyph glyph-name="uni0417" horiz-adv-x="378" unicode="З" d="M189 706q77 0 114 -48t37 -129v-18q0 -52 -25 -90.5t-70 -53.5q47 -13 71 -51t24 -91v-54q0 -81 -37 -129t-114 -48t-114 48t-37 129v58h44v-61q0 -60 25.5 -96t80.5 -36q106 0 106 136v54q0 54 -29 86t-79 32h-39v42h42q46 0 75.5 33.5t29.5 82.5v26q0 136 -106 136 q-55 0 -81 -35.5t-26 -96.5v-38h-42v36q0 81 36.5 128.5t113.5 47.5z"/>
<glyph glyph-name="uni0418" horiz-adv-x="391" unicode="И" d="M310 619l-105 -290l-115 -329h-50v700h42v-599l102 286l113 313h55v-700h-42v619z"/>
<glyph glyph-name="uni0419" horiz-adv-x="392" unicode="Й" d="M310 619l-100 -278l-120 -341h-50v700h42v-599l91 255l124 344h55v-700h-42v619zM271 832h31q-1 -39 -29 -62t-72 -23t-71.5 22.5t-28.5 62.5h32q1 -28 20 -41.5t48 -13.5q67 0 70 55z"/>
<glyph glyph-name="uni041A" horiz-adv-x="404" unicode="К" d="M327 0l-193 329l-48 -76v-253h-46v700h46v-370l228 370h48l-200 -326l213 -374h-48z"/>
<glyph glyph-name="uni041B" horiz-adv-x="438" unicode="Л" d="M350 658h-171l-18 -487q-2 -40 -7 -67.5t-17.5 -53t-37 -38t-61.5 -13.5h-9v42q28 0 46 9.5t26 30t10.5 39t3.5 50.5l21 530h261v-700h-47v658z"/>
<glyph glyph-name="uni041C" horiz-adv-x="505" unicode="М" d="M421 622l-146 -621h-46l-148 619v-620h-41v700h66l147 -619l146 619h66v-700h-44v622z"/>
<glyph glyph-name="uni041D" horiz-adv-x="391" unicode="Н" d="M304 329h-218v-329h-46v700h46v-329h218v329h47v-700h-47v329z"/>
<glyph glyph-name="uni041E" d="M83 532v-364q0 -61 26 -96.5t81 -35.5q56 0 82.5 35.5t26.5 96.5v364q0 61 -26.5 96.5t-82.5 35.5q-55 0 -81 -35.5t-26 -96.5zM37 171v358q0 80 38.5 128.5t114.5 48.5q78 0 116.5 -48t38.5 -129v-358q0 -81 -38.5 -129t-116.5 -48q-76 0 -114.5 48.5t-38.5 128.5z" unicode="О"/>
<glyph glyph-name="uni041F" horiz-adv-x="391" unicode="П" d="M304 658h-218v-658h-46v700h311v-700h-47v658z"/>
<glyph glyph-name="uni0420" horiz-adv-x="364" unicode="Р" d="M86 330h87q61 0 88.5 28.5t27.5 92.5v82q0 125 -104 125h-99v-328zM40 700h145q150 0 150 -170v-76q0 -166 -162 -166h-87v-288h-46v700z"/>
<glyph glyph-name="uni0421" horiz-adv-x="374" unicode="С" d="M188 706q77 0 114 -48.5t37 -128.5v-58h-44v61q0 60 -25.5 96t-80.5 36t-80.5 -36t-25.5 -96v-364q0 -131 106 -131t106 131v83h44v-80q0 -80 -37 -128.5t-114 -48.5t-114 48.5t-37 128.5v358q0 80 37 128.5t114 48.5z"/>
<glyph glyph-name="uni0422" horiz-adv-x="388" unicode="Т" d="M217 0h-46v658h-143v42h332v-42h-143v-658z"/>
<glyph glyph-name="uni0423" horiz-adv-x="426" unicode="У" d="M398 700l-181 -570q-18 -68 -48 -99t-95 -31h-11v41h3q44 0 65.5 19.5t35.5 62.5l29 85l-168 492h47l82 -247l61 -187l56 188l76 246h48z"/>
<glyph glyph-name="uni0424" horiz-adv-x="556" unicode="Ф" d="M300 117h57q116 0 116 132v197q0 132 -116 132h-57v-461zM255 578h-57q-116 0 -116 -132v-197q0 -132 116 -132h57v461zM300 619h57q161 0 161 -176v-191q0 -176 -161 -176h-57v-76h-45v76h-57q-161 0 -161 176v191q0 176 161 176h57v81h45v-81z"/>
<glyph glyph-name="uni0425" horiz-adv-x="440" unicode="Х" d="M360 0l-142 326l-142 -326h-45l158 363l-147 337h48l132 -301l133 301h44l-147 -337l157 -363h-49z"/>
<glyph glyph-name="uni0426" horiz-adv-x="455" unicode="Ц" d="M421 -94h-45v94h-323v700h45v-658h218v658h47v-658h58v-136z"/>
<glyph glyph-name="uni0427" horiz-adv-x="387" unicode="Ч" d="M301 0v336q-40 -69 -123 -69q-71 0 -106 47.5t-35 123.5v262h46v-259q0 -58 27.5 -95t80.5 -37q87 0 110 91v300h46v-700h-46z"/>
<glyph glyph-name="uni0428" horiz-adv-x="564" unicode="Ш" d="M40 700h46v-658h173v658h46v-658h173v658h46v-700h-484v700z"/>
<glyph glyph-name="uni0429" horiz-adv-x="615" unicode="Щ" d="M582 -94h-45v94h-497v700h46v-658h172v658h46v-658h174l-1 658h46v-658h59v-136z"/>
<glyph glyph-name="uni042A" horiz-adv-x="435" unicode="Ъ" d="M151 42h99q104 0 104 125v82q0 63 -28 92t-88 29h-87v-328zM151 412h87q162 0 162 -166v-76q0 -170 -150 -170h-145v658h-95v42h141v-288z"/>
<glyph glyph-name="uni042B" horiz-adv-x="487" unicode="Ы" d="M86 42h98q105 0 105 125v82q0 64 -28 92.5t-89 28.5h-86v-328zM401 700h46v-700h-46v700zM86 412h86q83 0 123 -41t40 -125v-76q0 -170 -151 -170h-144v700h46v-288z"/>
<glyph glyph-name="uni042C" horiz-adv-x="370" unicode="Ь" d="M86 42h98q105 0 105 125v82q0 64 -28 92.5t-89 28.5h-86v-328zM86 412h86q83 0 123 -41t40 -125v-76q0 -170 -151 -170h-144v700h46v-288z"/>
<glyph glyph-name="uni042D" horiz-adv-x="374" unicode="Э" d="M186 706q76 0 113.5 -48.5t37.5 -128.5v-358q0 -80 -37.5 -128.5t-113.5 -48.5q-77 0 -114 48.5t-37 128.5v68h44v-71q0 -131 105 -131q107 0 107 131v173h-143v42h143v149q0 132 -107 132q-54 0 -79.5 -36t-25.5 -96v-47h-43v44q0 81 36.5 129t113.5 48z"/>
<glyph glyph-name="uni042E" horiz-adv-x="552" unicode="Ю" d="M361 664q-108 0 -108 -132v-364q0 -132 108 -132q55 0 81.5 35.5t26.5 96.5v364q0 61 -26.5 96.5t-81.5 35.5zM361 706q77 0 115.5 -48t38.5 -129v-358q0 -81 -38.5 -129t-115.5 -48q-78 0 -116 48t-38 129v158h-121v-329h-46v700h46v-329h121v158q0 81 38 129t116 48z "/>
<glyph glyph-name="uni042F" horiz-adv-x="386" unicode="Я" d="M300 658h-99q-105 0 -105 -120v-66q0 -67 32 -92t98 -25h74v303zM300 313h-73q-65 0 -98 -26.5t-33 -92.5v-110q0 -58 -15 -84h-48q17 26 17 84v109q0 121 101 143q-101 23 -101 145v61q0 158 150 158h146v-700h-46v313z"/>
<glyph glyph-name="uni0430" horiz-adv-x="436" unicode="а" d="M215 648l-101 -453h204zM325 155h-218l-35 -155h-42l153 701h67l156 -701h-46z"/>
<glyph glyph-name="uni0431" horiz-adv-x="387" unicode="б" d="M86 42h108q109 0 109 122v85q0 62 -28 86t-89 24h-100v-317zM86 402h100q83 0 123 -37t40 -119v-79q0 -167 -155 -167h-154v700h283v-42h-237v-256z"/>
<glyph glyph-name="uni0432" horiz-adv-x="378" unicode="в" d="M86 42h104q107 0 107 121v63q0 67 -30 95t-94 28h-87v-307zM86 391h78q64 0 92 23.5t28 87.5v45q0 57 -22 84t-76 27h-100v-267zM40 700h147q77 0 110 -37t33 -112v-40q0 -60 -20.5 -93.5t-71.5 -44.5q105 -21 105 -150v-61q0 -162 -153 -162h-150v700z"/>
<glyph glyph-name="uni0433" horiz-adv-x="346" unicode="г" d="M309 658h-223v-658h-46v700h269v-42z"/>
<glyph glyph-name="uni0434" horiz-adv-x="489" unicode="д" d="M185 658l-26 -504q-5 -82 -33 -112h225v616h-166zM456 -97h-46v97h-334v-97h-45v139h48q31 33 35 112l28 546h256v-658h58v-139z"/>
<glyph glyph-name="uni0435" horiz-adv-x="351" unicode="е" d="M86 376h191v-42h-191v-292h230v-42h-276v700h276v-42h-230v-282z"/>
<glyph glyph-name="uni0436" horiz-adv-x="623" unicode="ж" d="M547 0l-166 350l-47 -80v-270h-46v271l-46 79l-166 -350h-48l183 393l-175 307h47l205 -360v360h46v-360l205 360h48l-174 -306l181 -394h-47z"/>
<glyph glyph-name="uni0437" horiz-adv-x="378" unicode="з" d="M189 706q77 0 114 -48t37 -129v-18q0 -52 -25 -90.5t-70 -53.5q47 -13 71 -51t24 -91v-54q0 -81 -37 -129t-114 -48t-114 48t-37 129v58h44v-61q0 -60 25.5 -96t80.5 -36q106 0 106 136v54q0 54 -29 86t-79 32h-39v42h42q46 0 75.5 33.5t29.5 82.5v26q0 136 -106 136 q-55 0 -81 -35.5t-26 -96.5v-38h-42v36q0 81 36.5 128.5t113.5 47.5z"/>
<glyph glyph-name="uni0438" horiz-adv-x="391" unicode="и" d="M310 619l-106 -294l-114 -325h-50v700h42v-599l81 231l134 368h55v-700h-42v619z"/>
<glyph glyph-name="uni0439" horiz-adv-x="392" unicode="й" d="M310 619l-220 -619h-50v700h42v-599l88 249l127 350h55v-700h-42v619zM271 830h31q-1 -40 -29 -62.5t-72 -22.5t-71.5 22.5t-28.5 62.5h32q1 -28 20 -42t48 -14q67 0 70 56z"/>
<glyph glyph-name="uni043A" horiz-adv-x="404" unicode="к" d="M327 0l-193 329l-48 -76v-253h-46v700h46v-370l228 370h48l-200 -326l213 -374h-48z"/>
<glyph glyph-name="uni043B" horiz-adv-x="438" unicode="л" d="M350 658h-171l-18 -487q-2 -40 -7 -67.5t-17.5 -53t-37 -38t-61.5 -13.5h-9v42q28 0 46 9.5t26 30t10.5 39t3.5 50.5l21 530h261v-700h-47v658z"/>
<glyph glyph-name="uni043C" horiz-adv-x="505" unicode="м" d="M421 622l-146 -621h-46l-148 619v-620h-41v700h66l147 -619l146 619h66v-700h-44v622z"/>
<glyph glyph-name="uni043D" horiz-adv-x="391" unicode="н" d="M304 329h-218v-329h-46v700h46v-329h218v329h47v-700h-47v329z"/>
<glyph glyph-name="uni043E" d="M83 532v-364q0 -61 26 -96.5t81 -35.5q56 0 82.5 35.5t26.5 96.5v364q0 61 -26.5 96.5t-82.5 35.5q-55 0 -81 -35.5t-26 -96.5zM37 171v358q0 80 38.5 128.5t114.5 48.5q78 0 116.5 -48t38.5 -129v-358q0 -81 -38.5 -129t-116.5 -48q-76 0 -114.5 48.5t-38.5 128.5z" unicode="о"/>
<glyph glyph-name="uni043F" horiz-adv-x="391" unicode="п" d="M304 658h-218v-658h-46v700h311v-700h-47v658z"/>
<glyph glyph-name="uni0440" horiz-adv-x="364" unicode="р" d="M86 330h87q61 0 88.5 28.5t27.5 92.5v82q0 125 -104 125h-99v-328zM40 700h145q150 0 150 -170v-76q0 -166 -162 -166h-87v-288h-46v700z"/>
<glyph glyph-name="uni0441" horiz-adv-x="374" unicode="с" d="M188 706q77 0 114 -48.5t37 -128.5v-58h-44v61q0 60 -25.5 96t-80.5 36t-80.5 -36t-25.5 -96v-364q0 -131 106 -131t106 131v83h44v-80q0 -80 -37 -128.5t-114 -48.5t-114 48.5t-37 128.5v358q0 80 37 128.5t114 48.5z"/>
<glyph glyph-name="uni0442" horiz-adv-x="388" unicode="т" d="M217 0h-46v658h-143v42h332v-42h-143v-658z"/>
<glyph glyph-name="uni0443" horiz-adv-x="426" unicode="у" d="M398 700l-181 -570q-18 -68 -48 -99t-95 -31h-11v41h3q44 0 65.5 19.5t35.5 62.5l29 85l-168 492h47l82 -247l61 -187l56 188l76 246h48z"/>
<glyph glyph-name="uni0444" horiz-adv-x="556" unicode="ф" d="M300 117h57q116 0 116 132v197q0 132 -116 132h-57v-461zM255 578h-57q-116 0 -116 -132v-197q0 -132 116 -132h57v461zM300 619h57q161 0 161 -176v-191q0 -176 -161 -176h-57v-76h-45v76h-57q-161 0 -161 176v191q0 176 161 176h57v81h45v-81z"/>
<glyph glyph-name="uni0445" horiz-adv-x="440" unicode="х" d="M360 0l-142 326l-142 -326h-45l158 363l-147 337h48l132 -301l133 301h44l-147 -337l157 -363h-49z"/>
<glyph glyph-name="uni0446" horiz-adv-x="455" unicode="ц" d="M421 -94h-45v94h-323v700h45v-658h218v658h47v-658h58v-136z"/>
<glyph glyph-name="uni0447" horiz-adv-x="387" unicode="ч" d="M301 0v336q-40 -69 -123 -69q-71 0 -106 47.5t-35 123.5v262h46v-259q0 -58 27.5 -95t80.5 -37q87 0 110 91v300h46v-700h-46z"/>
<glyph glyph-name="uni0448" horiz-adv-x="564" unicode="ш" d="M40 700h46v-658h173v658h46v-658h173v658h46v-700h-484v700z"/>
<glyph glyph-name="uni0449" horiz-adv-x="615" unicode="щ" d="M582 -94h-45v94h-497v700h46v-658h172v658h46v-658h174l-1 658h46v-658h59v-136z"/>
<glyph glyph-name="uni044A" horiz-adv-x="435" unicode="ъ" d="M151 42h99q104 0 104 125v82q0 63 -28 92t-88 29h-87v-328zM151 412h87q162 0 162 -166v-76q0 -170 -150 -170h-145v658h-95v42h141v-288z"/>
<glyph glyph-name="uni044B" horiz-adv-x="487" unicode="ы" d="M86 42h98q105 0 105 125v82q0 64 -28 92.5t-89 28.5h-86v-328zM401 700h46v-700h-46v700zM86 412h86q83 0 123 -41t40 -125v-76q0 -170 -151 -170h-144v700h46v-288z"/>
<glyph glyph-name="uni044C" horiz-adv-x="370" unicode="ь" d="M86 42h98q105 0 105 125v82q0 64 -28 92.5t-89 28.5h-86v-328zM86 412h86q83 0 123 -41t40 -125v-76q0 -170 -151 -170h-144v700h46v-288z"/>
<glyph glyph-name="uni044D" horiz-adv-x="374" unicode="э" d="M186 706q76 0 113.5 -48.5t37.5 -128.5v-358q0 -80 -37.5 -128.5t-113.5 -48.5q-77 0 -114 48.5t-37 128.5v68h44v-71q0 -131 105 -131q107 0 107 131v173h-143v42h143v149q0 132 -107 132q-54 0 -79.5 -36t-25.5 -96v-47h-43v44q0 81 36.5 129t113.5 48z"/>
<glyph glyph-name="uni044E" horiz-adv-x="552" unicode="ю" d="M361 664q-108 0 -108 -132v-364q0 -132 108 -132q55 0 81.5 35.5t26.5 96.5v364q0 61 -26.5 96.5t-81.5 35.5zM361 706q77 0 115.5 -48t38.5 -129v-358q0 -81 -38.5 -129t-115.5 -48q-78 0 -116 48t-38 129v158h-121v-329h-46v700h46v-329h121v158q0 81 38 129t116 48z "/>
<glyph glyph-name="uni044F" horiz-adv-x="386" unicode="я" d="M300 658h-99q-105 0 -105 -120v-66q0 -67 32 -92t98 -25h74v303zM300 313h-73q-65 0 -98 -26.5t-33 -92.5v-110q0 -58 -15 -84h-48q17 26 17 84v109q0 121 101 143q-101 23 -101 145v61q0 158 150 158h146v-700h-46v313z"/>
<glyph glyph-name="uni0451" horiz-adv-x="351" unicode="ё" d="M86 376h191v-42h-191v-292h230v-42h-276v700h276v-42h-230v-282zM206 830h41v-85h-41v85zM109 830h41v-85h-41v85z"/>
<glyph glyph-name="endash" horiz-adv-x="417" unicode="–" d="M26 331v38h366v-38h-366z"/>
<glyph glyph-name="emdash" horiz-adv-x="670" unicode="—" d="M26 331v38h619v-38h-619z"/>
<glyph glyph-name="quoteleft" horiz-adv-x="134" unicode="‘" d="M40 620l29 80h20l-20 -76h16v-88h-45v84z"/>
<glyph glyph-name="quotesinglbase" horiz-adv-x="134" unicode="‚" d="M94 4l-29 -80h-20l20 76h-15v88h44v-84z"/>
<glyph glyph-name="quotedblleft" horiz-adv-x="212" unicode="“" d="M118 620l29 80h21l-21 -76h16v-88h-45v84zM40 620l29 80h20l-20 -76h16v-88h-45v84z"/>
<glyph glyph-name="quotedblright" horiz-adv-x="212" unicode="”" d="M168 616l-29 -80h-20l20 76h-16v88h45v-84zM90 616l-29 -80h-21l21 76h-16v88h45v-84z"/>
<glyph glyph-name="dagger" horiz-adv-x="393" unicode="†" d="M216 700v-199h142v-37h-142v-529h-39v529h-142v37h142v199h39z"/>
<glyph glyph-name="daggerdbl" horiz-adv-x="393" unicode="‡" d="M216 700v-199h142v-37h-142v-291h142v-38h-142v-200h-39v200h-142v38h142v291h-142v37h142v199h39z"/>
<glyph glyph-name="ellipsis" horiz-adv-x="283" unicode="…" d="M199 88h44v-88h-44v88zM119 88h44v-88h-44v88zM40 88h45v-88h-45v88z"/>
<glyph glyph-name="perthousand" horiz-adv-x="852" unicode="‰" d="M720 406q-63 0 -63 -82v-214q0 -83 63 -83t63 83v214q0 82 -63 82zM473 406q-63 0 -63 -82v-214q0 -83 63 -83t63 83v214q0 82 -63 82zM720 436q48 0 71 -31.5t23 -82.5v-210q0 -51 -23 -82.5t-71 -31.5t-71.5 31.5t-23.5 82.5v210q0 51 23.5 82.5t71.5 31.5zM473 436 q48 0 71 -31.5t23 -82.5v-210q0 -51 -23 -82.5t-71 -31.5t-71.5 31.5t-23.5 82.5v210q0 51 23.5 82.5t71.5 31.5zM132 673q-63 0 -63 -83v-216q0 -82 63 -82t63 82v216q0 83 -63 83zM424 701h30l-276 -701h-30zM132 702q48 0 71.5 -31t23.5 -82v-213q0 -51 -23.5 -82 t-71.5 -31t-71 31t-23 82v213q0 51 23 82t71 31z"/>
<glyph glyph-name="guilsinglleft" horiz-adv-x="171" unicode="‹" d="M96 97l-65 253l65 248h44l-64 -248l64 -253h-44z"/>
<glyph glyph-name="guilsinglright" horiz-adv-x="171" unicode="›" d="M31 98l64 253l-64 248h44l65 -248l-65 -253h-44z"/>
<glyph glyph-name="fraction" horiz-adv-x="258" unicode="⁄" d="M252 700h30l-276 -700h-30z"/>
<glyph glyph-name="Euro" horiz-adv-x="397" unicode="€" d="M66 420v109q0 80 36 128.5t112 48.5t112 -48.5t36 -128.5v-38h-44v41q0 132 -103 132q-53 0 -78 -36t-25 -96v-112h193v-27h-193v-82h193v-26h-193v-117q0 -131 103 -131t103 131v46h44v-43q0 -80 -36 -128.5t-112 -48.5t-112 48.5t-36 128.5v114h-40v26h40v82h-40v27h40 z"/>
<glyph glyph-name="trademark" horiz-adv-x="580" unicode="™" d="M515 651l-91 -303h-31l-92 303v-307h-29v356h44l93 -304l92 304h44v-356h-30v307zM136 344h-32v327h-90v29h211v-29h-89v-327z"/>
<glyph glyph-name="minus" horiz-adv-x="388" unicode="−" d="M35 367h319v-34h-319v34z"/>
<glyph glyph-name="infinity" horiz-adv-x="566" unicode="∞" d="M404 448h-17q-87 0 -87 -82q0 -81 87 -82h17q43 0 67.5 21t24.5 61t-24.5 61t-67.5 21zM181 448h-17q-91 0 -91 -82q0 -80 91 -82h17q88 0 88 82t-88 82zM392 481h14q58 0 91 -29.5t33 -85.5t-33 -85.5t-91 -29.5h-14q-86 0 -106 60q-23 -60 -109 -60h-13 q-58 0 -91.5 29.5t-33.5 85.5t33.5 85.5t91.5 29.5h13q86 0 109 -60q20 60 106 60z"/>
<glyph glyph-name="approxequal" horiz-adv-x="397" unicode="≈" d="M124 318h1q30 0 80.5 -31t73.5 -31h2q31 1 63 54l24 -22q-40 -67 -87 -68h-3q-28 0 -78 31t-76 31q-37 -1 -71 -54l-25 21q45 68 96 69zM124 479h1q30 0 80.5 -31t73.5 -31h2q31 1 63 54l24 -22q-39 -67 -87 -68h-3q-28 0 -77.5 30.5t-74.5 30.5h-2q-36 0 -71 -53l-25 21 q45 68 96 69z"/>
</font>
</defs>
</svg>
