<svg width="46" height="46" viewBox="0 0 46 46" fill="none" xmlns="http://www.w3.org/2000/svg">
<path fill-rule="evenodd" clip-rule="evenodd" d="M30 22H18.135L21.768 17.64C22.122 17.216 22.064 16.585 21.64 16.232C21.215 15.878 20.585 15.936 20.232 16.36L15.232 22.36C15.193 22.407 15.173 22.462 15.144 22.514C15.12 22.556 15.091 22.592 15.073 22.638C15.028 22.753 15.001 22.874 15.001 22.996C15.001 22.997 15 22.999 15 23C15 23.001 15.001 23.003 15.001 23.004C15.001 23.126 15.028 23.247 15.073 23.362C15.091 23.408 15.12 23.444 15.144 23.486C15.173 23.538 15.193 23.593 15.232 23.64L20.232 29.64C20.43 29.877 20.714 30 21 30C21.226 30 21.453 29.924 21.64 29.768C22.064 29.415 22.122 28.784 21.768 28.36L18.135 24H30C30.552 24 31 23.552 31 23C31 22.448 30.552 22 30 22" fill="white"/>
<mask id="mask0_835_38" style="mask-type:alpha" maskUnits="userSpaceOnUse" x="15" y="16" width="16" height="14">
<path fill-rule="evenodd" clip-rule="evenodd" d="M30 22H18.135L21.768 17.64C22.122 17.216 22.064 16.585 21.64 16.232C21.215 15.878 20.585 15.936 20.232 16.36L15.232 22.36C15.193 22.407 15.173 22.462 15.144 22.514C15.12 22.556 15.091 22.592 15.073 22.638C15.028 22.753 15.001 22.874 15.001 22.996C15.001 22.997 15 22.999 15 23C15 23.001 15.001 23.003 15.001 23.004C15.001 23.126 15.028 23.247 15.073 23.362C15.091 23.408 15.12 23.444 15.144 23.486C15.173 23.538 15.193 23.593 15.232 23.64L20.232 29.64C20.43 29.877 20.714 30 21 30C21.226 30 21.453 29.924 21.64 29.768C22.064 29.415 22.122 28.784 21.768 28.36L18.135 24H30C30.552 24 31 23.552 31 23C31 22.448 30.552 22 30 22" fill="white"/>
</mask>
<g mask="url(#mask0_835_38)">
</g>
</svg>
