<svg width="48" height="51" viewBox="0 0 48 51" fill="none" xmlns="http://www.w3.org/2000/svg">
<g filter="url(#filter0_d_826_21)">
<g clip-path="url(#clip0_826_21)">
<g filter="url(#filter1_d_826_21)">
<g filter="url(#filter2_d_826_21)">
<mask id="path-1-inside-1_826_21" fill="white">
<path fill-rule="evenodd" clip-rule="evenodd" d="M16.5719 36.2529C17.7619 36.2529 18.7302 37.2196 18.7302 38.4096C18.7302 39.5996 17.7619 40.5679 16.5719 40.5679C15.3819 40.5679 14.4152 39.5996 14.4152 38.4096C14.4152 37.2196 15.3819 36.2529 16.5719 36.2529ZM35.3724 36.2529C36.564 36.2529 37.5324 37.2196 37.5324 38.4096C37.5324 39.5996 36.564 40.5679 35.3724 40.5679C34.1824 40.5679 33.2157 39.5996 33.2157 38.4096C33.2157 37.2196 34.1824 36.2529 35.3724 36.2529ZM9.44554 8.0156L12.9122 8.6156C13.4705 8.71393 13.8955 9.17726 13.9439 9.74393L14.3355 14.4123L15.792 14.4129C16.0296 14.413 16.2648 14.4131 16.4974 14.4132L19.1712 14.4145C19.3844 14.4146 19.5951 14.4147 19.8035 14.4148L22.7558 14.4164C22.9413 14.4165 23.1246 14.4166 23.3056 14.4167L25.3745 14.4181C25.5384 14.4182 25.7002 14.4183 25.86 14.4184L27.6797 14.4197C27.8233 14.4199 27.965 14.42 28.1048 14.4201L29.6914 14.4214C29.8162 14.4216 29.9392 14.4217 30.0603 14.4218L31.1031 14.4228C31.2138 14.4229 31.3227 14.4231 31.4299 14.4232L32.6376 14.4246C32.7317 14.4247 32.8243 14.4248 32.9154 14.4249L33.935 14.4263C34.014 14.4265 34.0916 14.4266 34.1678 14.4267L34.8158 14.4278C34.8837 14.4279 34.9503 14.428 35.0155 14.4282L35.7374 14.4296C35.7926 14.4297 35.8466 14.4299 35.8994 14.43L36.3437 14.4311C36.3896 14.4312 36.4345 14.4313 36.4784 14.4315L36.9546 14.433C36.9903 14.4331 37.0251 14.4332 37.0589 14.4333L37.3385 14.4345C37.3669 14.4346 37.3945 14.4347 37.4212 14.4349L37.7041 14.4364C37.7247 14.4365 37.7445 14.4367 37.7636 14.4368L37.9178 14.438C37.933 14.4381 37.9476 14.4382 37.9616 14.4384L38.0726 14.4395C38.0833 14.4397 38.0936 14.4398 38.1033 14.4399L38.1788 14.4411C38.1859 14.4413 38.1926 14.4414 38.199 14.4415L38.2468 14.4427C38.2511 14.4429 38.2552 14.443 38.259 14.4432L38.2936 14.4448C38.2957 14.4449 38.2977 14.4451 38.2995 14.4452C38.3158 14.4467 38.3181 14.447 38.3205 14.4473C39.2489 14.5823 40.0655 15.0673 40.6222 15.8139C41.1789 16.5589 41.4122 17.4773 41.2789 18.3973L39.6972 29.3273C39.3989 31.4073 37.5922 32.9756 35.4922 32.9756H17.2905C15.0955 32.9756 13.2372 31.2623 13.0589 29.0706L11.5322 10.9139L9.02054 10.4806C8.33887 10.3606 7.88387 9.7156 8.00054 9.03393C8.12054 8.35226 8.77887 7.90893 9.44554 8.0156ZM15.4576 16.9128L14.5455 16.9123L15.5505 28.8656C15.6239 29.7856 16.3755 30.4756 17.2939 30.4756H35.4889C36.3572 30.4756 37.0989 29.8289 37.2222 28.9706L38.8055 18.0389C38.8422 17.7789 38.7772 17.5189 38.6189 17.3089C38.4622 17.0973 38.2322 16.9606 37.9722 16.9239C37.9602 16.9244 37.9314 16.9248 37.8867 16.9252L37.7054 16.9262C37.6675 16.9264 37.6258 16.9265 37.5804 16.9267L36.6362 16.9281C36.5565 16.9282 36.4737 16.9282 36.3878 16.9283L34.1679 16.9282C34.044 16.9281 33.9178 16.9281 33.7893 16.928L31.2558 16.9265C31.104 16.9264 30.9506 16.9262 30.7956 16.9261L29.362 16.925C29.1987 16.9248 29.0342 16.9247 28.8686 16.9246L27.3501 16.9232C27.1786 16.9231 27.0063 16.9229 26.8333 16.9228L25.7873 16.9218C25.6118 16.9216 25.4358 16.9215 25.2594 16.9213L23.6632 16.9198C23.4852 16.9196 23.3071 16.9195 23.1291 16.9193L22.0613 16.9183C21.8836 16.9182 21.7061 16.918 21.5289 16.9178L20.4703 16.9169C20.2947 16.9167 20.1196 16.9166 19.9452 16.9164L18.3943 16.9151C18.2245 16.9149 18.0555 16.9148 17.8876 16.9146L15.9277 16.9132C15.7695 16.913 15.6128 16.9129 15.4576 16.9128ZM32.812 20.5728C33.502 20.5728 34.062 21.1328 34.062 21.8228C34.062 22.5128 33.502 23.0728 32.812 23.0728H28.192C27.5004 23.0728 26.942 22.5128 26.942 21.8228C26.942 21.1328 27.5004 20.5728 28.192 20.5728H32.812Z"/>
</mask>
<path fill-rule="evenodd" clip-rule="evenodd" d="M16.5719 36.2529C17.7619 36.2529 18.7302 37.2196 18.7302 38.4096C18.7302 39.5996 17.7619 40.5679 16.5719 40.5679C15.3819 40.5679 14.4152 39.5996 14.4152 38.4096C14.4152 37.2196 15.3819 36.2529 16.5719 36.2529ZM35.3724 36.2529C36.564 36.2529 37.5324 37.2196 37.5324 38.4096C37.5324 39.5996 36.564 40.5679 35.3724 40.5679C34.1824 40.5679 33.2157 39.5996 33.2157 38.4096C33.2157 37.2196 34.1824 36.2529 35.3724 36.2529ZM9.44554 8.0156L12.9122 8.6156C13.4705 8.71393 13.8955 9.17726 13.9439 9.74393L14.3355 14.4123L15.792 14.4129C16.0296 14.413 16.2648 14.4131 16.4974 14.4132L19.1712 14.4145C19.3844 14.4146 19.5951 14.4147 19.8035 14.4148L22.7558 14.4164C22.9413 14.4165 23.1246 14.4166 23.3056 14.4167L25.3745 14.4181C25.5384 14.4182 25.7002 14.4183 25.86 14.4184L27.6797 14.4197C27.8233 14.4199 27.965 14.42 28.1048 14.4201L29.6914 14.4214C29.8162 14.4216 29.9392 14.4217 30.0603 14.4218L31.1031 14.4228C31.2138 14.4229 31.3227 14.4231 31.4299 14.4232L32.6376 14.4246C32.7317 14.4247 32.8243 14.4248 32.9154 14.4249L33.935 14.4263C34.014 14.4265 34.0916 14.4266 34.1678 14.4267L34.8158 14.4278C34.8837 14.4279 34.9503 14.428 35.0155 14.4282L35.7374 14.4296C35.7926 14.4297 35.8466 14.4299 35.8994 14.43L36.3437 14.4311C36.3896 14.4312 36.4345 14.4313 36.4784 14.4315L36.9546 14.433C36.9903 14.4331 37.0251 14.4332 37.0589 14.4333L37.3385 14.4345C37.3669 14.4346 37.3945 14.4347 37.4212 14.4349L37.7041 14.4364C37.7247 14.4365 37.7445 14.4367 37.7636 14.4368L37.9178 14.438C37.933 14.4381 37.9476 14.4382 37.9616 14.4384L38.0726 14.4395C38.0833 14.4397 38.0936 14.4398 38.1033 14.4399L38.1788 14.4411C38.1859 14.4413 38.1926 14.4414 38.199 14.4415L38.2468 14.4427C38.2511 14.4429 38.2552 14.443 38.259 14.4432L38.2936 14.4448C38.2957 14.4449 38.2977 14.4451 38.2995 14.4452C38.3158 14.4467 38.3181 14.447 38.3205 14.4473C39.2489 14.5823 40.0655 15.0673 40.6222 15.8139C41.1789 16.5589 41.4122 17.4773 41.2789 18.3973L39.6972 29.3273C39.3989 31.4073 37.5922 32.9756 35.4922 32.9756H17.2905C15.0955 32.9756 13.2372 31.2623 13.0589 29.0706L11.5322 10.9139L9.02054 10.4806C8.33887 10.3606 7.88387 9.7156 8.00054 9.03393C8.12054 8.35226 8.77887 7.90893 9.44554 8.0156ZM15.4576 16.9128L14.5455 16.9123L15.5505 28.8656C15.6239 29.7856 16.3755 30.4756 17.2939 30.4756H35.4889C36.3572 30.4756 37.0989 29.8289 37.2222 28.9706L38.8055 18.0389C38.8422 17.7789 38.7772 17.5189 38.6189 17.3089C38.4622 17.0973 38.2322 16.9606 37.9722 16.9239C37.9602 16.9244 37.9314 16.9248 37.8867 16.9252L37.7054 16.9262C37.6675 16.9264 37.6258 16.9265 37.5804 16.9267L36.6362 16.9281C36.5565 16.9282 36.4737 16.9282 36.3878 16.9283L34.1679 16.9282C34.044 16.9281 33.9178 16.9281 33.7893 16.928L31.2558 16.9265C31.104 16.9264 30.9506 16.9262 30.7956 16.9261L29.362 16.925C29.1987 16.9248 29.0342 16.9247 28.8686 16.9246L27.3501 16.9232C27.1786 16.9231 27.0063 16.9229 26.8333 16.9228L25.7873 16.9218C25.6118 16.9216 25.4358 16.9215 25.2594 16.9213L23.6632 16.9198C23.4852 16.9196 23.3071 16.9195 23.1291 16.9193L22.0613 16.9183C21.8836 16.9182 21.7061 16.918 21.5289 16.9178L20.4703 16.9169C20.2947 16.9167 20.1196 16.9166 19.9452 16.9164L18.3943 16.9151C18.2245 16.9149 18.0555 16.9148 17.8876 16.9146L15.9277 16.9132C15.7695 16.913 15.6128 16.9129 15.4576 16.9128ZM32.812 20.5728C33.502 20.5728 34.062 21.1328 34.062 21.8228C34.062 22.5128 33.502 23.0728 32.812 23.0728H28.192C27.5004 23.0728 26.942 22.5128 26.942 21.8228C26.942 21.1328 27.5004 20.5728 28.192 20.5728H32.812Z" fill="white"/>
<path fill-rule="evenodd" clip-rule="evenodd" d="M16.5719 36.2529C17.7619 36.2529 18.7302 37.2196 18.7302 38.4096C18.7302 39.5996 17.7619 40.5679 16.5719 40.5679C15.3819 40.5679 14.4152 39.5996 14.4152 38.4096C14.4152 37.2196 15.3819 36.2529 16.5719 36.2529ZM35.3724 36.2529C36.564 36.2529 37.5324 37.2196 37.5324 38.4096C37.5324 39.5996 36.564 40.5679 35.3724 40.5679C34.1824 40.5679 33.2157 39.5996 33.2157 38.4096C33.2157 37.2196 34.1824 36.2529 35.3724 36.2529ZM9.44554 8.0156L12.9122 8.6156C13.4705 8.71393 13.8955 9.17726 13.9439 9.74393L14.3355 14.4123L15.792 14.4129C16.0296 14.413 16.2648 14.4131 16.4974 14.4132L19.1712 14.4145C19.3844 14.4146 19.5951 14.4147 19.8035 14.4148L22.7558 14.4164C22.9413 14.4165 23.1246 14.4166 23.3056 14.4167L25.3745 14.4181C25.5384 14.4182 25.7002 14.4183 25.86 14.4184L27.6797 14.4197C27.8233 14.4199 27.965 14.42 28.1048 14.4201L29.6914 14.4214C29.8162 14.4216 29.9392 14.4217 30.0603 14.4218L31.1031 14.4228C31.2138 14.4229 31.3227 14.4231 31.4299 14.4232L32.6376 14.4246C32.7317 14.4247 32.8243 14.4248 32.9154 14.4249L33.935 14.4263C34.014 14.4265 34.0916 14.4266 34.1678 14.4267L34.8158 14.4278C34.8837 14.4279 34.9503 14.428 35.0155 14.4282L35.7374 14.4296C35.7926 14.4297 35.8466 14.4299 35.8994 14.43L36.3437 14.4311C36.3896 14.4312 36.4345 14.4313 36.4784 14.4315L36.9546 14.433C36.9903 14.4331 37.0251 14.4332 37.0589 14.4333L37.3385 14.4345C37.3669 14.4346 37.3945 14.4347 37.4212 14.4349L37.7041 14.4364C37.7247 14.4365 37.7445 14.4367 37.7636 14.4368L37.9178 14.438C37.933 14.4381 37.9476 14.4382 37.9616 14.4384L38.0726 14.4395C38.0833 14.4397 38.0936 14.4398 38.1033 14.4399L38.1788 14.4411C38.1859 14.4413 38.1926 14.4414 38.199 14.4415L38.2468 14.4427C38.2511 14.4429 38.2552 14.443 38.259 14.4432L38.2936 14.4448C38.2957 14.4449 38.2977 14.4451 38.2995 14.4452C38.3158 14.4467 38.3181 14.447 38.3205 14.4473C39.2489 14.5823 40.0655 15.0673 40.6222 15.8139C41.1789 16.5589 41.4122 17.4773 41.2789 18.3973L39.6972 29.3273C39.3989 31.4073 37.5922 32.9756 35.4922 32.9756H17.2905C15.0955 32.9756 13.2372 31.2623 13.0589 29.0706L11.5322 10.9139L9.02054 10.4806C8.33887 10.3606 7.88387 9.7156 8.00054 9.03393C8.12054 8.35226 8.77887 7.90893 9.44554 8.0156ZM15.4576 16.9128L14.5455 16.9123L15.5505 28.8656C15.6239 29.7856 16.3755 30.4756 17.2939 30.4756H35.4889C36.3572 30.4756 37.0989 29.8289 37.2222 28.9706L38.8055 18.0389C38.8422 17.7789 38.7772 17.5189 38.6189 17.3089C38.4622 17.0973 38.2322 16.9606 37.9722 16.9239C37.9602 16.9244 37.9314 16.9248 37.8867 16.9252L37.7054 16.9262C37.6675 16.9264 37.6258 16.9265 37.5804 16.9267L36.6362 16.9281C36.5565 16.9282 36.4737 16.9282 36.3878 16.9283L34.1679 16.9282C34.044 16.9281 33.9178 16.9281 33.7893 16.928L31.2558 16.9265C31.104 16.9264 30.9506 16.9262 30.7956 16.9261L29.362 16.925C29.1987 16.9248 29.0342 16.9247 28.8686 16.9246L27.3501 16.9232C27.1786 16.9231 27.0063 16.9229 26.8333 16.9228L25.7873 16.9218C25.6118 16.9216 25.4358 16.9215 25.2594 16.9213L23.6632 16.9198C23.4852 16.9196 23.3071 16.9195 23.1291 16.9193L22.0613 16.9183C21.8836 16.9182 21.7061 16.918 21.5289 16.9178L20.4703 16.9169C20.2947 16.9167 20.1196 16.9166 19.9452 16.9164L18.3943 16.9151C18.2245 16.9149 18.0555 16.9148 17.8876 16.9146L15.9277 16.9132C15.7695 16.913 15.6128 16.9129 15.4576 16.9128ZM32.812 20.5728C33.502 20.5728 34.062 21.1328 34.062 21.8228C34.062 22.5128 33.502 23.0728 32.812 23.0728H28.192C27.5004 23.0728 26.942 22.5128 26.942 21.8228C26.942 21.1328 27.5004 20.5728 28.192 20.5728H32.812Z" stroke="white" stroke-width="2" mask="url(#path-1-inside-1_826_21)"/>
</g>
</g>
</g>
</g>
<defs>
<filter id="filter0_d_826_21" x="0" y="3" width="48" height="48" filterUnits="userSpaceOnUse" color-interpolation-filters="sRGB">
<feFlood flood-opacity="0" result="BackgroundImageFix"/>
<feColorMatrix in="SourceAlpha" type="matrix" values="0 0 0 0 0 0 0 0 0 0 0 0 0 0 0 0 0 0 127 0" result="hardAlpha"/>
<feOffset dy="4"/>
<feGaussianBlur stdDeviation="2"/>
<feComposite in2="hardAlpha" operator="out"/>
<feColorMatrix type="matrix" values="0 0 0 0 0 0 0 0 0 0 0 0 0 0 0 0 0 0 0.25 0"/>
<feBlend mode="normal" in2="BackgroundImageFix" result="effect1_dropShadow_826_21"/>
<feBlend mode="normal" in="SourceGraphic" in2="effect1_dropShadow_826_21" result="shape"/>
</filter>
<filter id="filter1_d_826_21" x="3.9823" y="7.99979" width="41.3333" height="40.5681" filterUnits="userSpaceOnUse" color-interpolation-filters="sRGB">
<feFlood flood-opacity="0" result="BackgroundImageFix"/>
<feColorMatrix in="SourceAlpha" type="matrix" values="0 0 0 0 0 0 0 0 0 0 0 0 0 0 0 0 0 0 127 0" result="hardAlpha"/>
<feOffset dy="4"/>
<feGaussianBlur stdDeviation="2"/>
<feComposite in2="hardAlpha" operator="out"/>
<feColorMatrix type="matrix" values="0 0 0 0 0 0 0 0 0 0 0 0 0 0 0 0 0 0 0.25 0"/>
<feBlend mode="normal" in2="BackgroundImageFix" result="effect1_dropShadow_826_21"/>
<feBlend mode="normal" in="SourceGraphic" in2="effect1_dropShadow_826_21" result="shape"/>
</filter>
<filter id="filter2_d_826_21" x="3.9823" y="7.99979" width="41.3333" height="40.5681" filterUnits="userSpaceOnUse" color-interpolation-filters="sRGB">
<feFlood flood-opacity="0" result="BackgroundImageFix"/>
<feColorMatrix in="SourceAlpha" type="matrix" values="0 0 0 0 0 0 0 0 0 0 0 0 0 0 0 0 0 0 127 0" result="hardAlpha"/>
<feOffset dy="4"/>
<feGaussianBlur stdDeviation="2"/>
<feComposite in2="hardAlpha" operator="out"/>
<feColorMatrix type="matrix" values="0 0 0 0 0 0 0 0 0 0 0 0 0 0 0 0 0 0 0.25 0"/>
<feBlend mode="normal" in2="BackgroundImageFix" result="effect1_dropShadow_826_21"/>
<feBlend mode="normal" in="SourceGraphic" in2="effect1_dropShadow_826_21" result="shape"/>
</filter>
<clipPath id="clip0_826_21">
<rect width="40" height="40" fill="white" transform="translate(4 3)"/>
</clipPath>
</defs>
</svg>
