<svg width="114" height="105" viewBox="0 0 114 105" fill="none" xmlns="http://www.w3.org/2000/svg">
<g filter="url(#filter0_d_826_11)">
<rect x="57" y="13" width="50.8175" height="50.8175" rx="20" transform="rotate(45 57 13)" fill="url(#paint0_linear_826_11)"/>
<rect x="57" y="13" width="50.8175" height="50.8175" rx="20" transform="rotate(45 57 13)" fill="url(#paint1_linear_826_11)"/>
</g>
<rect x="57" y="7.14296" width="59.1" height="59.1" rx="19.5" transform="rotate(45 57 7.14296)" stroke="url(#paint2_linear_826_11)"/>
<rect x="57" y="7.14296" width="59.1" height="59.1" rx="19.5" transform="rotate(45 57 7.14296)" stroke="url(#paint3_linear_826_11)"/>
<path d="M63.5254 58.8031C63.1159 59.2062 62.4713 59.2062 62.0618 58.8031C61.6662 58.4135 61.6662 57.7652 62.0618 57.3765L69.4828 50.0691L42.3951 50.0691C41.8242 50.0691 41.3558 49.6223 41.3558 49.0602C41.3558 48.4982 41.8242 48.0369 42.3951 48.0369L69.4828 48.0369L62.0618 40.7431C61.6662 40.3399 61.6662 39.6907 62.0618 39.3019C62.4713 38.8988 63.1159 38.8988 63.5254 39.3019L72.7033 48.3392C73.0989 48.7288 73.0989 49.3771 72.7033 49.7659L63.5254 58.8031Z" fill="white"/>
<defs>
<filter id="filter0_d_826_11" x="0.350952" y="0.284271" width="113.298" height="113.298" filterUnits="userSpaceOnUse" color-interpolation-filters="sRGB">
<feFlood flood-opacity="0" result="BackgroundImageFix"/>
<feColorMatrix in="SourceAlpha" type="matrix" values="0 0 0 0 0 0 0 0 0 0 0 0 0 0 0 0 0 0 127 0" result="hardAlpha"/>
<feMorphology radius="6" operator="dilate" in="SourceAlpha" result="effect1_dropShadow_826_11"/>
<feOffset dy="8"/>
<feGaussianBlur stdDeviation="11.5"/>
<feColorMatrix type="matrix" values="0 0 0 0 0.427451 0 0 0 0 0.380392 0 0 0 0 0.94902 0 0 0 0.22 0"/>
<feBlend mode="normal" in2="BackgroundImageFix" result="effect1_dropShadow_826_11"/>
<feBlend mode="normal" in="SourceGraphic" in2="effect1_dropShadow_826_11" result="shape"/>
</filter>
<linearGradient id="paint0_linear_826_11" x1="55.1912" y1="13" x2="115.828" y2="19.9458" gradientUnits="userSpaceOnUse">
<stop stop-color="#100E0C"/>
<stop offset="1" stop-color="#C8C8CC"/>
</linearGradient>
<linearGradient id="paint1_linear_826_11" x1="97.4817" y1="-29.3479" x2="53.7319" y2="-2.63644" gradientUnits="userSpaceOnUse">
<stop stop-color="white"/>
<stop offset="1" stop-color="#272828" stop-opacity="0"/>
</linearGradient>
<linearGradient id="paint2_linear_826_11" x1="54.8608" y1="6.43586" x2="126.573" y2="14.6504" gradientUnits="userSpaceOnUse">
<stop stop-color="white"/>
<stop offset="1" stop-color="white"/>
</linearGradient>
<linearGradient id="paint3_linear_826_11" x1="104.876" y1="-43.6475" x2="53.1349" y2="-12.0568" gradientUnits="userSpaceOnUse">
<stop stop-color="white"/>
<stop offset="1" stop-color="white" stop-opacity="0"/>
</linearGradient>
</defs>
</svg>
