<svg width="46" height="46" viewBox="0 0 46 46" fill="none" xmlns="http://www.w3.org/2000/svg">
<path fill-rule="evenodd" clip-rule="evenodd" d="M16 22H27.865L24.232 17.64C23.878 17.216 23.936 16.585 24.36 16.232C24.785 15.878 25.415 15.936 25.768 16.36L30.768 22.36C30.807 22.407 30.827 22.462 30.856 22.514C30.88 22.556 30.909 22.592 30.927 22.638C30.972 22.753 30.999 22.874 30.999 22.996C30.999 22.997 31 22.999 31 23C31 23.001 30.999 23.003 30.999 23.004C30.999 23.126 30.972 23.247 30.927 23.362C30.909 23.408 30.88 23.444 30.856 23.486C30.827 23.538 30.807 23.593 30.768 23.64L25.768 29.64C25.57 29.877 25.286 30 25 30C24.774 30 24.547 29.924 24.36 29.768C23.936 29.415 23.878 28.784 24.232 28.36L27.865 24H16C15.448 24 15 23.552 15 23C15 22.448 15.448 22 16 22" fill="black"/>
<mask id="mask0_835_46" style="mask-type:alpha" maskUnits="userSpaceOnUse" x="15" y="16" width="16" height="14">
<path fill-rule="evenodd" clip-rule="evenodd" d="M16 22H27.865L24.232 17.64C23.878 17.216 23.936 16.585 24.36 16.232C24.785 15.878 25.415 15.936 25.768 16.36L30.768 22.36C30.807 22.407 30.827 22.462 30.856 22.514C30.88 22.556 30.909 22.592 30.927 22.638C30.972 22.753 30.999 22.874 30.999 22.996C30.999 22.997 31 22.999 31 23C31 23.001 30.999 23.003 30.999 23.004C30.999 23.126 30.972 23.247 30.927 23.362C30.909 23.408 30.88 23.444 30.856 23.486C30.827 23.538 30.807 23.593 30.768 23.64L25.768 29.64C25.57 29.877 25.286 30 25 30C24.774 30 24.547 29.924 24.36 29.768C23.936 29.415 23.878 28.784 24.232 28.36L27.865 24H16C15.448 24 15 23.552 15 23C15 22.448 15.448 22 16 22" fill="white"/>
</mask>
<g mask="url(#mask0_835_46)">
</g>
</svg>
