<svg width="46" height="46" viewBox="0 0 46 46" fill="none" xmlns="http://www.w3.org/2000/svg">
<path fill-rule="evenodd" clip-rule="evenodd" d="M31.284 4C37.898 4 43.278 9.38 43.278 15.996V30.35C43.278 36.964 37.898 42.346 31.284 42.346H13.996C7.382 42.346 2 36.964 2 30.35V15.996C2 9.38 7.382 4 13.996 4H31.284ZM31.284 7H13.996C9.036 7 5 11.036 5 15.996V30.35C5 35.31 9.036 39.346 13.996 39.346H31.284C36.244 39.346 40.278 35.31 40.278 30.35V29.79L33.6822 29.7912C29.8882 29.7912 26.8002 26.7052 26.7982 22.9132C26.7982 19.1172 29.8862 16.0292 33.6822 16.0272L40.278 16.026V15.996C40.278 11.036 36.244 7 31.284 7ZM40.278 19.026L33.6822 19.0272C31.5402 19.0292 29.7982 20.7712 29.7982 22.9112C29.7982 25.0492 31.5422 26.7912 33.6822 26.7912L40.278 26.79V19.026ZM34.5974 21.2872C35.4254 21.2872 36.0974 21.9592 36.0974 22.7872C36.0974 23.6152 35.4254 24.2872 34.5974 24.2872H33.9734C33.1454 24.2872 32.4734 23.6152 32.4734 22.7872C32.4734 21.9592 33.1454 21.2872 33.9734 21.2872H34.5974ZM23.37 13.0762C24.198 13.0762 24.87 13.7482 24.87 14.5762C24.87 15.4042 24.198 16.0762 23.37 16.0762H12.572C11.744 16.0762 11.072 15.4042 11.072 14.5762C11.072 13.7482 11.744 13.0762 12.572 13.0762H23.37Z" fill="#F2F2F2"/>
</svg>
